G04 #@! TF.GenerationSoftware,KiCad,Pcbnew,5.1.10-88a1d61d58~88~ubuntu18.04.1*
G04 #@! TF.CreationDate,2021-10-08T18:05:20+03:00*
G04 #@! TF.ProjectId,canhacker,63616e68-6163-46b6-9572-2e6b69636164,rev?*
G04 #@! TF.SameCoordinates,Original*
G04 #@! TF.FileFunction,Soldermask,Top*
G04 #@! TF.FilePolarity,Negative*
%FSLAX46Y46*%
G04 Gerber Fmt 4.6, Leading zero omitted, Abs format (unit mm)*
G04 Created by KiCad (PCBNEW 5.1.10-88a1d61d58~88~ubuntu18.04.1) date 2021-10-08 18:05:20*
%MOMM*%
%LPD*%
G01*
G04 APERTURE LIST*
%ADD10C,0.120000*%
%ADD11R,2.000000X2.500000*%
%ADD12R,0.500000X2.300000*%
%ADD13R,1.420000X1.000000*%
%ADD14R,1.000000X1.420000*%
%ADD15C,1.370000*%
%ADD16R,1.370000X1.370000*%
%ADD17R,1.470000X1.160000*%
%ADD18R,1.160000X1.470000*%
%ADD19R,1.230000X1.710000*%
%ADD20R,1.500000X1.300000*%
%ADD21R,1.710000X1.230000*%
%ADD22R,2.150000X3.250000*%
%ADD23R,2.150000X0.950000*%
%ADD24R,1.950000X2.950000*%
%ADD25R,0.600000X1.300000*%
%ADD26R,1.473200X0.279400*%
%ADD27R,0.279400X1.473200*%
%ADD28R,0.533400X1.701800*%
%ADD29C,2.100000*%
%ADD30R,2.100000X2.100000*%
G04 APERTURE END LIST*
D10*
X151130000Y-108712000D02*
X128270000Y-108712000D01*
X151130000Y-41910000D02*
X151130000Y-108712000D01*
X128270000Y-41910000D02*
X151130000Y-41910000D01*
X128270000Y-108712000D02*
X128270000Y-41910000D01*
D11*
X144150000Y-48855000D03*
X144150000Y-43355000D03*
X135250000Y-48855000D03*
X135250000Y-43355000D03*
D12*
X138100000Y-48955000D03*
X138900000Y-48955000D03*
X139700000Y-48955000D03*
X140500000Y-48955000D03*
X141300000Y-48955000D03*
D13*
X140970000Y-98125000D03*
X140970000Y-99995000D03*
X130810000Y-98125000D03*
X130810000Y-99995000D03*
X142240000Y-94315000D03*
X142240000Y-96185000D03*
X144780000Y-94315000D03*
X144780000Y-96185000D03*
X138430000Y-95250000D03*
X138430000Y-93380000D03*
X138430000Y-91105000D03*
X138430000Y-89235000D03*
X130810000Y-93380000D03*
X130810000Y-95250000D03*
X130810000Y-91105000D03*
X130810000Y-89235000D03*
D14*
X145115000Y-80010000D03*
X146985000Y-80010000D03*
X146985000Y-82550000D03*
X145115000Y-82550000D03*
X131745000Y-74930000D03*
X129875000Y-74930000D03*
D13*
X142240000Y-79675000D03*
X142240000Y-77805000D03*
D15*
X146050000Y-99060000D03*
D16*
X143510000Y-99060000D03*
D15*
X135890000Y-99060000D03*
D16*
X133350000Y-99060000D03*
D17*
X147320000Y-94375000D03*
X147320000Y-96125000D03*
D18*
X135495000Y-87630000D03*
X133745000Y-87630000D03*
X133745000Y-83820000D03*
X135495000Y-83820000D03*
X131840000Y-62865000D03*
X133590000Y-62865000D03*
D17*
X147320000Y-73773000D03*
X147320000Y-72023000D03*
D18*
X139305000Y-83820000D03*
X137555000Y-83820000D03*
D17*
X146050000Y-63486000D03*
X146050000Y-61736000D03*
X133985000Y-77075000D03*
X133985000Y-75325000D03*
X142240000Y-83425000D03*
X142240000Y-81675000D03*
D14*
X133015000Y-57150000D03*
X131145000Y-57150000D03*
X133015000Y-59690000D03*
X131145000Y-59690000D03*
X133015000Y-54610000D03*
X131145000Y-54610000D03*
D19*
X130810000Y-69770000D03*
X130810000Y-72470000D03*
D20*
X130810000Y-66990000D03*
X130810000Y-65090000D03*
D21*
X143430000Y-53340000D03*
X146130000Y-53340000D03*
D18*
X138825000Y-53340000D03*
X140575000Y-53340000D03*
D17*
X135890000Y-58815000D03*
X135890000Y-60565000D03*
D19*
X135890000Y-55960000D03*
X135890000Y-53260000D03*
D22*
X145140000Y-58420000D03*
D23*
X139340000Y-60720000D03*
X139340000Y-58420000D03*
X139340000Y-56120000D03*
D24*
X138920000Y-80010000D03*
X134620000Y-80010000D03*
D25*
X136525000Y-95360000D03*
X135255000Y-95360000D03*
X133985000Y-95360000D03*
X132715000Y-95360000D03*
X132715000Y-90060000D03*
X133985000Y-90060000D03*
X135255000Y-90060000D03*
X136525000Y-90060000D03*
D26*
X134086600Y-73609200D03*
X134086600Y-73101200D03*
X134086600Y-72593200D03*
X134086600Y-72110600D03*
X134086600Y-71602600D03*
X134086600Y-71094600D03*
X134086600Y-70612000D03*
X134086600Y-70104000D03*
X134086600Y-69596000D03*
X134086600Y-69088000D03*
X134086600Y-68605400D03*
X134086600Y-68097400D03*
X134086600Y-67589400D03*
X134086600Y-67106800D03*
X134086600Y-66598800D03*
X134086600Y-66090800D03*
D27*
X135940800Y-64236600D03*
X136448800Y-64236600D03*
X136956800Y-64236600D03*
X137439400Y-64236600D03*
X137947400Y-64236600D03*
X138455400Y-64236600D03*
X138938000Y-64236600D03*
X139446000Y-64236600D03*
X139954000Y-64236600D03*
X140462000Y-64236600D03*
X140944600Y-64236600D03*
X141452600Y-64236600D03*
X141960600Y-64236600D03*
X142443200Y-64236600D03*
X142951200Y-64236600D03*
X143459200Y-64236600D03*
D26*
X145313400Y-66090800D03*
X145313400Y-66598800D03*
X145313400Y-67106800D03*
X145313400Y-67589400D03*
X145313400Y-68097400D03*
X145313400Y-68605400D03*
X145313400Y-69088000D03*
X145313400Y-69596000D03*
X145313400Y-70104000D03*
X145313400Y-70612000D03*
X145313400Y-71094600D03*
X145313400Y-71602600D03*
X145313400Y-72110600D03*
X145313400Y-72593200D03*
X145313400Y-73101200D03*
X145313400Y-73609200D03*
D27*
X143459200Y-75463400D03*
X142951200Y-75463400D03*
X142443200Y-75463400D03*
X141960600Y-75463400D03*
X141452600Y-75463400D03*
X140944600Y-75463400D03*
X140462000Y-75463400D03*
X139954000Y-75463400D03*
X139446000Y-75463400D03*
X138938000Y-75463400D03*
X138455400Y-75463400D03*
X137947400Y-75463400D03*
X137439400Y-75463400D03*
X136956800Y-75463400D03*
X136448800Y-75463400D03*
X135940800Y-75463400D03*
D28*
X148590000Y-91490800D03*
X147320000Y-91490800D03*
X146050000Y-91490800D03*
X144780000Y-91490800D03*
X143510000Y-91490800D03*
X142240000Y-91490800D03*
X140970000Y-91490800D03*
X140970000Y-86309200D03*
X142240000Y-86309200D03*
X143510000Y-86309200D03*
X144780000Y-86309200D03*
X146050000Y-86309200D03*
X147320000Y-86309200D03*
X148590000Y-86309200D03*
D29*
X147875000Y-104775000D03*
D30*
X142875000Y-104775000D03*
D29*
X137080000Y-104775000D03*
D30*
X132080000Y-104775000D03*
D15*
X130810000Y-77470000D03*
X130810000Y-80010000D03*
X130810000Y-82550000D03*
D16*
X130810000Y-85090000D03*
M02*
