G04 #@! TF.GenerationSoftware,KiCad,Pcbnew,5.1.10-88a1d61d58~88~ubuntu18.04.1*
G04 #@! TF.CreationDate,2021-10-08T18:05:20+03:00*
G04 #@! TF.ProjectId,canhacker,63616e68-6163-46b6-9572-2e6b69636164,rev?*
G04 #@! TF.SameCoordinates,Original*
G04 #@! TF.FileFunction,Copper,L2,Bot*
G04 #@! TF.FilePolarity,Positive*
%FSLAX46Y46*%
G04 Gerber Fmt 4.6, Leading zero omitted, Abs format (unit mm)*
G04 Created by KiCad (PCBNEW 5.1.10-88a1d61d58~88~ubuntu18.04.1) date 2021-10-08 18:05:20*
%MOMM*%
%LPD*%
G01*
G04 APERTURE LIST*
G04 #@! TA.AperFunction,SMDPad,CuDef*
%ADD10R,1.000000X1.420000*%
G04 #@! TD*
G04 #@! TA.AperFunction,ComponentPad*
%ADD11C,1.370000*%
G04 #@! TD*
G04 #@! TA.AperFunction,ComponentPad*
%ADD12R,1.370000X1.370000*%
G04 #@! TD*
G04 #@! TA.AperFunction,SMDPad,CuDef*
%ADD13R,1.150000X1.300000*%
G04 #@! TD*
G04 #@! TA.AperFunction,ComponentPad*
%ADD14C,2.100000*%
G04 #@! TD*
G04 #@! TA.AperFunction,ComponentPad*
%ADD15R,2.100000X2.100000*%
G04 #@! TD*
G04 #@! TA.AperFunction,ViaPad*
%ADD16C,0.800000*%
G04 #@! TD*
G04 #@! TA.AperFunction,Conductor*
%ADD17C,0.250000*%
G04 #@! TD*
G04 APERTURE END LIST*
D10*
X146985000Y-77470000D03*
X145115000Y-77470000D03*
X145115000Y-75565000D03*
X146985000Y-75565000D03*
D11*
X146050000Y-99060000D03*
D12*
X143510000Y-99060000D03*
D11*
X135890000Y-99060000D03*
D12*
X133350000Y-99060000D03*
D13*
X144925000Y-80010000D03*
X147175000Y-80010000D03*
X147175000Y-82550000D03*
X144925000Y-82550000D03*
D14*
X147875000Y-104775000D03*
D15*
X142875000Y-104775000D03*
D14*
X137080000Y-104775000D03*
D15*
X132080000Y-104775000D03*
D11*
X130810000Y-77470000D03*
X130810000Y-80010000D03*
X130810000Y-82550000D03*
D12*
X130810000Y-85090000D03*
D16*
X138176000Y-86360000D03*
X132461000Y-72390000D03*
X132715000Y-89027000D03*
X132461000Y-71374000D03*
X148082000Y-82550000D03*
X144018000Y-80010000D03*
X144780000Y-92964000D03*
X142303500Y-96837500D03*
X138303000Y-58420000D03*
X130810000Y-64389000D03*
X139700000Y-73660000D03*
X147701000Y-75565000D03*
X142240000Y-84201000D03*
X147320000Y-93091000D03*
X134747000Y-64643000D03*
X135890000Y-57531000D03*
X139319000Y-82931000D03*
X139319000Y-62103000D03*
X140970000Y-88011000D03*
X142240000Y-79248000D03*
X142113000Y-73787000D03*
X130810000Y-67564000D03*
X130810000Y-71628000D03*
X147320000Y-71120000D03*
X136906000Y-66167000D03*
X129413000Y-68453000D03*
X135890000Y-67056000D03*
X144272000Y-75692000D03*
X144018000Y-77470000D03*
X130810000Y-88392000D03*
X136111980Y-71505660D03*
X142875000Y-66294000D03*
X138430000Y-92583000D03*
X143510000Y-85090000D03*
X142177610Y-67183000D03*
X144983543Y-84569906D03*
X136144000Y-69469000D03*
X146050000Y-84582000D03*
X136144000Y-70485000D03*
X147320000Y-84582000D03*
D17*
X138176000Y-69342000D02*
X137160000Y-68326000D01*
X137160000Y-68326000D02*
X135255000Y-68326000D01*
X134112000Y-69469000D02*
X134112000Y-71755000D01*
X133477000Y-72390000D02*
X132461000Y-72390000D01*
X134112000Y-71755000D02*
X133477000Y-72390000D01*
X138176000Y-86360000D02*
X138176000Y-69342000D01*
X135255000Y-68326000D02*
X134112000Y-69469000D01*
X132207000Y-71374000D02*
X132461000Y-71374000D01*
X131572000Y-72009000D02*
X132207000Y-71374000D01*
X131572000Y-74041000D02*
X131572000Y-72009000D01*
X132715000Y-89027000D02*
X132715000Y-75184000D01*
X132715000Y-75184000D02*
X131572000Y-74041000D01*
X147175000Y-82550000D02*
X148082000Y-82550000D01*
X144018000Y-80010000D02*
X144925000Y-80010000D01*
X142303500Y-96837500D02*
X144780000Y-94361000D01*
X144780000Y-94361000D02*
X144780000Y-92964000D01*
X138303000Y-62674500D02*
X138303000Y-58420000D01*
X135445500Y-65532000D02*
X138303000Y-62674500D01*
X130810000Y-64389000D02*
X131953000Y-65532000D01*
X131953000Y-65532000D02*
X135445500Y-65532000D01*
X146985000Y-75565000D02*
X146985000Y-77470000D01*
X146985000Y-79820000D02*
X147175000Y-80010000D01*
X146985000Y-77470000D02*
X146985000Y-79820000D01*
X144925000Y-82260000D02*
X147175000Y-80010000D01*
X144925000Y-82550000D02*
X144925000Y-82260000D01*
X142240000Y-84201000D02*
X143764000Y-82677000D01*
X144798000Y-82677000D02*
X144925000Y-82550000D01*
X143764000Y-82677000D02*
X144798000Y-82677000D01*
X147701000Y-75565000D02*
X146985000Y-75565000D01*
X139319000Y-82931000D02*
X139319000Y-82931000D01*
X135890000Y-57531000D02*
X135890000Y-60452000D01*
X134747000Y-61595000D02*
X134747000Y-64643000D01*
X135890000Y-60452000D02*
X134747000Y-61595000D01*
X139319000Y-74041000D02*
X139319000Y-82931000D01*
X139700000Y-73660000D02*
X139319000Y-74041000D01*
X143002000Y-83439000D02*
X142240000Y-84201000D01*
X144526000Y-85979000D02*
X144272000Y-85725000D01*
X144272000Y-84709000D02*
X143002000Y-83439000D01*
X144526000Y-90297000D02*
X144526000Y-85979000D01*
X144272000Y-85725000D02*
X144272000Y-84709000D01*
X147320000Y-93091000D02*
X144526000Y-90297000D01*
X140589000Y-65278000D02*
X139319000Y-64008000D01*
X140589000Y-85852000D02*
X140589000Y-65278000D01*
X140970000Y-88011000D02*
X140970000Y-86233000D01*
X139319000Y-64008000D02*
X139319000Y-62103000D01*
X140970000Y-86233000D02*
X140589000Y-85852000D01*
X130810000Y-71628000D02*
X130810000Y-67564000D01*
X142240000Y-73914000D02*
X142113000Y-73787000D01*
X142240000Y-79248000D02*
X142240000Y-73914000D01*
X144780000Y-71120000D02*
X147320000Y-71120000D01*
X142113000Y-73787000D02*
X144780000Y-71120000D01*
X129413000Y-68453000D02*
X129413000Y-67056000D01*
X130302000Y-66167000D02*
X136906000Y-66167000D01*
X129413000Y-67056000D02*
X130302000Y-66167000D01*
X129286000Y-81026000D02*
X130810000Y-82550000D01*
X129286000Y-71501000D02*
X129286000Y-81026000D01*
X130175000Y-70612000D02*
X129286000Y-71501000D01*
X135255000Y-67056000D02*
X135037999Y-66838999D01*
X130461999Y-66838999D02*
X130084999Y-67215999D01*
X135890000Y-67056000D02*
X135255000Y-67056000D01*
X135037999Y-66838999D02*
X130461999Y-66838999D01*
X130084999Y-67215999D02*
X130084999Y-67912001D01*
X130175000Y-68002002D02*
X130175000Y-70612000D01*
X130084999Y-67912001D02*
X130175000Y-68002002D01*
X144988000Y-75692000D02*
X145115000Y-75565000D01*
X144272000Y-75692000D02*
X144988000Y-75692000D01*
X144018000Y-77470000D02*
X145115000Y-77470000D01*
X136111980Y-88805020D02*
X136111980Y-71505660D01*
X135001000Y-89916000D02*
X136111980Y-88805020D01*
X131572000Y-89916000D02*
X135001000Y-89916000D01*
X130810000Y-88392000D02*
X130810000Y-89154000D01*
X130810000Y-89154000D02*
X131572000Y-89916000D01*
X143274999Y-66693999D02*
X142875000Y-66294000D01*
X143274999Y-68307001D02*
X143274999Y-66693999D01*
X141351000Y-84582000D02*
X141351000Y-70231000D01*
X143510000Y-85090000D02*
X141859000Y-85090000D01*
X141351000Y-70231000D02*
X143274999Y-68307001D01*
X141859000Y-85090000D02*
X141351000Y-84582000D01*
X143510000Y-91313000D02*
X143510000Y-85090000D01*
X138430000Y-92583000D02*
X142240000Y-92583000D01*
X142240000Y-92583000D02*
X143510000Y-91313000D01*
X148590000Y-81661000D02*
X149225000Y-82296000D01*
X149225000Y-82296000D02*
X149225000Y-82931000D01*
X148590000Y-69088000D02*
X148590000Y-81661000D01*
X145696450Y-83856999D02*
X144983543Y-84569906D01*
X141777611Y-66783001D02*
X141777611Y-65867389D01*
X149225000Y-82931000D02*
X148299001Y-83856999D01*
X148299001Y-83856999D02*
X145696450Y-83856999D01*
X144780000Y-65278000D02*
X148590000Y-69088000D01*
X142367000Y-65278000D02*
X144780000Y-65278000D01*
X141777611Y-65867389D02*
X142367000Y-65278000D01*
X142177610Y-67183000D02*
X141777611Y-66783001D01*
X137414000Y-96393000D02*
X137414000Y-69977000D01*
X137414000Y-69977000D02*
X136906000Y-69469000D01*
X146050000Y-89789000D02*
X148209000Y-91948000D01*
X146050000Y-84582000D02*
X146050000Y-89789000D01*
X148209000Y-91948000D02*
X148209000Y-99060000D01*
X146685000Y-100584000D02*
X141605000Y-100584000D01*
X136906000Y-69469000D02*
X136144000Y-69469000D01*
X148209000Y-99060000D02*
X146685000Y-100584000D01*
X141605000Y-100584000D02*
X137414000Y-96393000D01*
X147320000Y-89281000D02*
X147320000Y-84836000D01*
X148786010Y-90747010D02*
X147320000Y-89281000D01*
X148786010Y-99373400D02*
X148786010Y-90747010D01*
X147320000Y-84836000D02*
X147320000Y-84582000D01*
X136525000Y-70485000D02*
X136836990Y-70796990D01*
X136144000Y-70485000D02*
X136525000Y-70485000D01*
X136836990Y-70796990D02*
X136836990Y-96704990D01*
X141351000Y-101219000D02*
X146940410Y-101219000D01*
X146940410Y-101219000D02*
X148786010Y-99373400D01*
X136836990Y-96704990D02*
X141351000Y-101219000D01*
M02*
