G04 #@! TF.GenerationSoftware,KiCad,Pcbnew,5.1.10-88a1d61d58~88~ubuntu18.04.1*
G04 #@! TF.CreationDate,2021-10-08T18:05:20+03:00*
G04 #@! TF.ProjectId,canhacker,63616e68-6163-46b6-9572-2e6b69636164,rev?*
G04 #@! TF.SameCoordinates,Original*
G04 #@! TF.FileFunction,Copper,L1,Top*
G04 #@! TF.FilePolarity,Positive*
%FSLAX46Y46*%
G04 Gerber Fmt 4.6, Leading zero omitted, Abs format (unit mm)*
G04 Created by KiCad (PCBNEW 5.1.10-88a1d61d58~88~ubuntu18.04.1) date 2021-10-08 18:05:20*
%MOMM*%
%LPD*%
G01*
G04 APERTURE LIST*
G04 #@! TA.AperFunction,SMDPad,CuDef*
%ADD10R,2.000000X2.500000*%
G04 #@! TD*
G04 #@! TA.AperFunction,SMDPad,CuDef*
%ADD11R,0.500000X2.300000*%
G04 #@! TD*
G04 #@! TA.AperFunction,SMDPad,CuDef*
%ADD12R,1.420000X1.000000*%
G04 #@! TD*
G04 #@! TA.AperFunction,SMDPad,CuDef*
%ADD13R,1.000000X1.420000*%
G04 #@! TD*
G04 #@! TA.AperFunction,ComponentPad*
%ADD14C,1.370000*%
G04 #@! TD*
G04 #@! TA.AperFunction,ComponentPad*
%ADD15R,1.370000X1.370000*%
G04 #@! TD*
G04 #@! TA.AperFunction,SMDPad,CuDef*
%ADD16R,1.470000X1.160000*%
G04 #@! TD*
G04 #@! TA.AperFunction,SMDPad,CuDef*
%ADD17R,1.160000X1.470000*%
G04 #@! TD*
G04 #@! TA.AperFunction,SMDPad,CuDef*
%ADD18R,1.230000X1.710000*%
G04 #@! TD*
G04 #@! TA.AperFunction,SMDPad,CuDef*
%ADD19R,1.500000X1.300000*%
G04 #@! TD*
G04 #@! TA.AperFunction,SMDPad,CuDef*
%ADD20R,1.710000X1.230000*%
G04 #@! TD*
G04 #@! TA.AperFunction,SMDPad,CuDef*
%ADD21R,2.150000X3.250000*%
G04 #@! TD*
G04 #@! TA.AperFunction,SMDPad,CuDef*
%ADD22R,2.150000X0.950000*%
G04 #@! TD*
G04 #@! TA.AperFunction,SMDPad,CuDef*
%ADD23R,1.950000X2.950000*%
G04 #@! TD*
G04 #@! TA.AperFunction,SMDPad,CuDef*
%ADD24R,0.600000X1.300000*%
G04 #@! TD*
G04 #@! TA.AperFunction,SMDPad,CuDef*
%ADD25R,1.473200X0.279400*%
G04 #@! TD*
G04 #@! TA.AperFunction,SMDPad,CuDef*
%ADD26R,0.279400X1.473200*%
G04 #@! TD*
G04 #@! TA.AperFunction,SMDPad,CuDef*
%ADD27R,0.533400X1.701800*%
G04 #@! TD*
G04 #@! TA.AperFunction,ComponentPad*
%ADD28C,2.100000*%
G04 #@! TD*
G04 #@! TA.AperFunction,ComponentPad*
%ADD29R,2.100000X2.100000*%
G04 #@! TD*
G04 #@! TA.AperFunction,ViaPad*
%ADD30C,0.800000*%
G04 #@! TD*
G04 #@! TA.AperFunction,Conductor*
%ADD31C,0.250000*%
G04 #@! TD*
G04 APERTURE END LIST*
D10*
X144150000Y-48855000D03*
X144150000Y-43355000D03*
X135250000Y-48855000D03*
X135250000Y-43355000D03*
D11*
X138100000Y-48955000D03*
X138900000Y-48955000D03*
X139700000Y-48955000D03*
X140500000Y-48955000D03*
X141300000Y-48955000D03*
D12*
X140970000Y-98125000D03*
X140970000Y-99995000D03*
X130810000Y-98125000D03*
X130810000Y-99995000D03*
X142240000Y-94315000D03*
X142240000Y-96185000D03*
X144780000Y-94315000D03*
X144780000Y-96185000D03*
X138430000Y-95250000D03*
X138430000Y-93380000D03*
X138430000Y-91105000D03*
X138430000Y-89235000D03*
X130810000Y-93380000D03*
X130810000Y-95250000D03*
X130810000Y-91105000D03*
X130810000Y-89235000D03*
D13*
X145115000Y-80010000D03*
X146985000Y-80010000D03*
X146985000Y-82550000D03*
X145115000Y-82550000D03*
X131745000Y-74930000D03*
X129875000Y-74930000D03*
D12*
X142240000Y-79675000D03*
X142240000Y-77805000D03*
D14*
X146050000Y-99060000D03*
D15*
X143510000Y-99060000D03*
D14*
X135890000Y-99060000D03*
D15*
X133350000Y-99060000D03*
D16*
X147320000Y-94375000D03*
X147320000Y-96125000D03*
D17*
X135495000Y-87630000D03*
X133745000Y-87630000D03*
X133745000Y-83820000D03*
X135495000Y-83820000D03*
X131840000Y-62865000D03*
X133590000Y-62865000D03*
D16*
X147320000Y-73773000D03*
X147320000Y-72023000D03*
D17*
X139305000Y-83820000D03*
X137555000Y-83820000D03*
D16*
X146050000Y-63486000D03*
X146050000Y-61736000D03*
X133985000Y-77075000D03*
X133985000Y-75325000D03*
X142240000Y-83425000D03*
X142240000Y-81675000D03*
D13*
X133015000Y-57150000D03*
X131145000Y-57150000D03*
X133015000Y-59690000D03*
X131145000Y-59690000D03*
X133015000Y-54610000D03*
X131145000Y-54610000D03*
D18*
X130810000Y-69770000D03*
X130810000Y-72470000D03*
D19*
X130810000Y-66990000D03*
X130810000Y-65090000D03*
D20*
X143430000Y-53340000D03*
X146130000Y-53340000D03*
D17*
X138825000Y-53340000D03*
X140575000Y-53340000D03*
D16*
X135890000Y-58815000D03*
X135890000Y-60565000D03*
D18*
X135890000Y-55960000D03*
X135890000Y-53260000D03*
D21*
X145140000Y-58420000D03*
D22*
X139340000Y-60720000D03*
X139340000Y-58420000D03*
X139340000Y-56120000D03*
D23*
X138920000Y-80010000D03*
X134620000Y-80010000D03*
D24*
X136525000Y-95360000D03*
X135255000Y-95360000D03*
X133985000Y-95360000D03*
X132715000Y-95360000D03*
X132715000Y-90060000D03*
X133985000Y-90060000D03*
X135255000Y-90060000D03*
X136525000Y-90060000D03*
D25*
X134086600Y-73609200D03*
X134086600Y-73101200D03*
X134086600Y-72593200D03*
X134086600Y-72110600D03*
X134086600Y-71602600D03*
X134086600Y-71094600D03*
X134086600Y-70612000D03*
X134086600Y-70104000D03*
X134086600Y-69596000D03*
X134086600Y-69088000D03*
X134086600Y-68605400D03*
X134086600Y-68097400D03*
X134086600Y-67589400D03*
X134086600Y-67106800D03*
X134086600Y-66598800D03*
X134086600Y-66090800D03*
D26*
X135940800Y-64236600D03*
X136448800Y-64236600D03*
X136956800Y-64236600D03*
X137439400Y-64236600D03*
X137947400Y-64236600D03*
X138455400Y-64236600D03*
X138938000Y-64236600D03*
X139446000Y-64236600D03*
X139954000Y-64236600D03*
X140462000Y-64236600D03*
X140944600Y-64236600D03*
X141452600Y-64236600D03*
X141960600Y-64236600D03*
X142443200Y-64236600D03*
X142951200Y-64236600D03*
X143459200Y-64236600D03*
D25*
X145313400Y-66090800D03*
X145313400Y-66598800D03*
X145313400Y-67106800D03*
X145313400Y-67589400D03*
X145313400Y-68097400D03*
X145313400Y-68605400D03*
X145313400Y-69088000D03*
X145313400Y-69596000D03*
X145313400Y-70104000D03*
X145313400Y-70612000D03*
X145313400Y-71094600D03*
X145313400Y-71602600D03*
X145313400Y-72110600D03*
X145313400Y-72593200D03*
X145313400Y-73101200D03*
X145313400Y-73609200D03*
D26*
X143459200Y-75463400D03*
X142951200Y-75463400D03*
X142443200Y-75463400D03*
X141960600Y-75463400D03*
X141452600Y-75463400D03*
X140944600Y-75463400D03*
X140462000Y-75463400D03*
X139954000Y-75463400D03*
X139446000Y-75463400D03*
X138938000Y-75463400D03*
X138455400Y-75463400D03*
X137947400Y-75463400D03*
X137439400Y-75463400D03*
X136956800Y-75463400D03*
X136448800Y-75463400D03*
X135940800Y-75463400D03*
D27*
X148590000Y-91490800D03*
X147320000Y-91490800D03*
X146050000Y-91490800D03*
X144780000Y-91490800D03*
X143510000Y-91490800D03*
X142240000Y-91490800D03*
X140970000Y-91490800D03*
X140970000Y-86309200D03*
X142240000Y-86309200D03*
X143510000Y-86309200D03*
X144780000Y-86309200D03*
X146050000Y-86309200D03*
X147320000Y-86309200D03*
X148590000Y-86309200D03*
D28*
X147875000Y-104775000D03*
D29*
X142875000Y-104775000D03*
D28*
X137080000Y-104775000D03*
D29*
X132080000Y-104775000D03*
D14*
X130810000Y-77470000D03*
X130810000Y-80010000D03*
X130810000Y-82550000D03*
D15*
X130810000Y-85090000D03*
D30*
X138176000Y-86360000D03*
X132461000Y-72390000D03*
X132715000Y-89027000D03*
X132461000Y-71374000D03*
X148082000Y-82550000D03*
X144018000Y-80010000D03*
X144780000Y-92964000D03*
X142303500Y-96837500D03*
X138303000Y-58420000D03*
X130810000Y-64389000D03*
X139700000Y-73660000D03*
X147701000Y-75565000D03*
X142240000Y-84201000D03*
X147320000Y-93091000D03*
X134747000Y-64643000D03*
X135890000Y-57531000D03*
X139319000Y-82931000D03*
X139319000Y-62103000D03*
X140970000Y-88011000D03*
X142240000Y-79248000D03*
X142113000Y-73787000D03*
X130810000Y-67564000D03*
X130810000Y-71628000D03*
X147320000Y-71120000D03*
X136906000Y-66167000D03*
X129413000Y-68453000D03*
X135890000Y-67056000D03*
X144272000Y-75692000D03*
X144018000Y-77470000D03*
X130810000Y-88392000D03*
X136111980Y-71505660D03*
X142875000Y-66294000D03*
X138430000Y-92583000D03*
X143510000Y-85090000D03*
X142177610Y-67183000D03*
X144983543Y-84569906D03*
X136144000Y-69469000D03*
X146050000Y-84582000D03*
X136144000Y-70485000D03*
X147320000Y-84582000D03*
D31*
X130048000Y-58593000D02*
X131145000Y-59690000D01*
X131145000Y-54610000D02*
X130048000Y-54610000D01*
X130048000Y-54610000D02*
X130048000Y-58593000D01*
X132715000Y-50673000D02*
X130048000Y-53340000D01*
X139192000Y-50673000D02*
X132715000Y-50673000D01*
X139700000Y-48955000D02*
X139700000Y-50165000D01*
X130048000Y-53340000D02*
X130048000Y-54610000D01*
X139700000Y-50165000D02*
X139192000Y-50673000D01*
X140500000Y-50127000D02*
X140500000Y-48955000D01*
X131145000Y-56688000D02*
X132080000Y-55753000D01*
X134296990Y-51250010D02*
X139376990Y-51250010D01*
X131145000Y-57150000D02*
X131145000Y-56688000D01*
X132080000Y-55753000D02*
X132080000Y-53467000D01*
X132080000Y-53467000D02*
X134296990Y-51250010D01*
X139376990Y-51250010D02*
X140500000Y-50127000D01*
X132664200Y-72593200D02*
X132461000Y-72390000D01*
X134086600Y-72593200D02*
X132664200Y-72593200D01*
X136525000Y-88011000D02*
X138176000Y-86360000D01*
X136525000Y-90060000D02*
X136525000Y-88011000D01*
X132492700Y-71374000D02*
X132461000Y-71374000D01*
X133229300Y-72110600D02*
X132492700Y-71374000D01*
X134086600Y-72110600D02*
X133229300Y-72110600D01*
X132715000Y-90060000D02*
X132715000Y-89027000D01*
X134874000Y-62230000D02*
X136398000Y-62230000D01*
X133015000Y-59690000D02*
X133015000Y-60371000D01*
X137439400Y-63271400D02*
X137439400Y-64236600D01*
X136398000Y-62230000D02*
X137439400Y-63271400D01*
X133015000Y-60371000D02*
X134874000Y-62230000D01*
X148082000Y-82550000D02*
X146985000Y-82550000D01*
X144018000Y-80010000D02*
X145115000Y-80010000D01*
X135255000Y-96901000D02*
X135255000Y-95360000D01*
X135890000Y-99060000D02*
X135890000Y-97536000D01*
X135890000Y-97536000D02*
X135255000Y-96901000D01*
X135890000Y-99060000D02*
X135890000Y-100711000D01*
X137080000Y-101901000D02*
X137080000Y-104775000D01*
X135890000Y-100711000D02*
X137080000Y-101901000D01*
X133985000Y-96520000D02*
X133985000Y-95360000D01*
X129840000Y-99995000D02*
X129540000Y-99695000D01*
X130810000Y-99995000D02*
X129840000Y-99995000D01*
X129540000Y-99695000D02*
X129540000Y-97409000D01*
X129540000Y-97409000D02*
X130048000Y-96901000D01*
X130048000Y-96901000D02*
X133604000Y-96901000D01*
X133604000Y-96901000D02*
X133985000Y-96520000D01*
X130810000Y-99995000D02*
X130810000Y-101219000D01*
X132080000Y-102489000D02*
X132080000Y-104775000D01*
X130810000Y-101219000D02*
X132080000Y-102489000D01*
X146050000Y-99060000D02*
X144526000Y-97536000D01*
X144526000Y-97536000D02*
X143002000Y-97536000D01*
X142240000Y-96774000D02*
X142240000Y-96185000D01*
X143002000Y-97536000D02*
X142303500Y-96837500D01*
X144780000Y-91490800D02*
X144780000Y-92964000D01*
X142303500Y-96837500D02*
X142240000Y-96774000D01*
X147875000Y-102790000D02*
X147875000Y-104775000D01*
X146050000Y-99060000D02*
X146050000Y-100965000D01*
X146050000Y-100965000D02*
X147875000Y-102790000D01*
X140970000Y-99995000D02*
X141143000Y-99995000D01*
X146050000Y-91490800D02*
X146050000Y-95885000D01*
X142875000Y-103251000D02*
X142875000Y-104775000D01*
X140970000Y-99995000D02*
X140970000Y-101346000D01*
X140970000Y-101346000D02*
X142875000Y-103251000D01*
X145034000Y-106934000D02*
X142875000Y-104775000D01*
X148971000Y-106934000D02*
X145034000Y-106934000D01*
X144780000Y-96185000D02*
X144826000Y-96185000D01*
X149606000Y-106299000D02*
X148971000Y-106934000D01*
X146050000Y-95885000D02*
X146050000Y-97028000D01*
X146050000Y-97028000D02*
X149606000Y-100584000D01*
X149606000Y-100965000D02*
X149606000Y-101727000D01*
X149606000Y-100584000D02*
X149606000Y-101727000D01*
X149606000Y-101727000D02*
X149606000Y-106299000D01*
X146004000Y-96185000D02*
X144780000Y-96185000D01*
X146050000Y-96139000D02*
X146004000Y-96185000D01*
X130810000Y-64389000D02*
X130810000Y-65090000D01*
X140575000Y-53340000D02*
X140575000Y-54596000D01*
X141478000Y-55499000D02*
X142621000Y-55499000D01*
X140575000Y-54596000D02*
X141478000Y-55499000D01*
X145415000Y-55499000D02*
X142621000Y-55499000D01*
X146130000Y-53340000D02*
X146130000Y-54784000D01*
X146130000Y-54784000D02*
X145415000Y-55499000D01*
X140589000Y-58420000D02*
X139340000Y-58420000D01*
X141478000Y-55499000D02*
X141478000Y-57531000D01*
X141478000Y-57531000D02*
X140589000Y-58420000D01*
X138825000Y-53340000D02*
X138557000Y-53340000D01*
X135250000Y-43355000D02*
X135250000Y-48855000D01*
X135350000Y-48955000D02*
X135250000Y-48855000D01*
X138100000Y-48955000D02*
X135350000Y-48955000D01*
X144150000Y-43355000D02*
X144150000Y-48855000D01*
X135250000Y-43355000D02*
X144150000Y-43355000D01*
X139340000Y-56120000D02*
X139587000Y-56120000D01*
X135890000Y-58815000D02*
X135890000Y-57531000D01*
X136448800Y-64236600D02*
X136448800Y-65223200D01*
X136448800Y-65223200D02*
X136140000Y-65532000D01*
X136140000Y-65532000D02*
X135636000Y-65532000D01*
X135636000Y-65532000D02*
X134747000Y-64643000D01*
X135495000Y-87630000D02*
X135495000Y-88787000D01*
X135255000Y-89027000D02*
X135255000Y-90060000D01*
X135495000Y-88787000D02*
X135255000Y-89027000D01*
X147320000Y-94375000D02*
X147320000Y-93091000D01*
X133745000Y-83820000D02*
X133745000Y-84723000D01*
X133745000Y-84723000D02*
X134366000Y-85344000D01*
X139305000Y-84977000D02*
X139305000Y-83820000D01*
X138938000Y-85344000D02*
X139305000Y-84977000D01*
X135495000Y-85457000D02*
X135382000Y-85344000D01*
X135495000Y-87630000D02*
X135495000Y-85457000D01*
X134366000Y-85344000D02*
X135382000Y-85344000D01*
X135382000Y-85344000D02*
X138938000Y-85344000D01*
X130810000Y-69770000D02*
X130810000Y-69850000D01*
X133985000Y-77075000D02*
X133745000Y-77075000D01*
X133745000Y-77075000D02*
X132080000Y-78740000D01*
X132080000Y-78740000D02*
X130175000Y-78740000D01*
X129799999Y-75005001D02*
X129875000Y-74930000D01*
X129799999Y-78364999D02*
X129799999Y-75005001D01*
X130175000Y-78740000D02*
X129799999Y-78364999D01*
X139700000Y-83425000D02*
X139305000Y-83820000D01*
X142240000Y-83425000D02*
X139700000Y-83425000D01*
X142240000Y-83425000D02*
X142240000Y-84201000D01*
X146648200Y-73101200D02*
X147320000Y-73773000D01*
X145313400Y-73101200D02*
X146648200Y-73101200D01*
X147701000Y-74154000D02*
X147320000Y-73773000D01*
X147701000Y-75565000D02*
X147701000Y-74154000D01*
X147320000Y-93091000D02*
X147320000Y-91490800D01*
X130810000Y-85090000D02*
X132080000Y-83820000D01*
X132080000Y-83820000D02*
X133745000Y-83820000D01*
X135890000Y-57531000D02*
X135890000Y-55960000D01*
X146266702Y-66598800D02*
X146431000Y-66434502D01*
X145313400Y-66598800D02*
X146266702Y-66598800D01*
X146431000Y-63867000D02*
X146050000Y-63486000D01*
X146431000Y-66434502D02*
X146431000Y-63867000D01*
X145313400Y-73101200D02*
X144094200Y-73101200D01*
X144094200Y-73101200D02*
X143891000Y-72898000D01*
X143891000Y-72898000D02*
X143891000Y-67056000D01*
X144348200Y-66598800D02*
X145313400Y-66598800D01*
X143891000Y-67056000D02*
X144348200Y-66598800D01*
X132080000Y-78740000D02*
X132080000Y-83820000D01*
X140912998Y-73660000D02*
X139700000Y-73660000D01*
X141452600Y-74199602D02*
X140912998Y-73660000D01*
X141452600Y-75463400D02*
X141452600Y-74199602D01*
X139319000Y-83806000D02*
X139305000Y-83820000D01*
X139319000Y-82931000D02*
X139319000Y-83806000D01*
X140071998Y-51943000D02*
X143383000Y-51943000D01*
X138825000Y-53340000D02*
X138825000Y-53189998D01*
X138825000Y-53189998D02*
X140071998Y-51943000D01*
X144150000Y-50033000D02*
X144150000Y-48855000D01*
X143383000Y-51943000D02*
X144150000Y-51176000D01*
X144150000Y-51176000D02*
X144150000Y-50033000D01*
X143383000Y-53293000D02*
X143430000Y-53340000D01*
X143383000Y-51943000D02*
X143383000Y-53293000D01*
X138938000Y-55718000D02*
X139340000Y-56120000D01*
X138825000Y-53340000D02*
X138938000Y-53453000D01*
X138938000Y-53453000D02*
X138938000Y-55718000D01*
X139326000Y-56134000D02*
X139340000Y-56120000D01*
X135890000Y-55960000D02*
X136064000Y-56134000D01*
X136064000Y-56134000D02*
X139326000Y-56134000D01*
X134747000Y-64643000D02*
X132207000Y-64643000D01*
X134086600Y-73101200D02*
X131903610Y-73101200D01*
X131903610Y-73101200D02*
X131750001Y-72947591D01*
X130810000Y-69977000D02*
X131750001Y-70917001D01*
X130810000Y-69770000D02*
X130810000Y-69977000D01*
X131750001Y-72947591D02*
X131750001Y-70917001D01*
X132207000Y-68199000D02*
X130810000Y-69596000D01*
X132207000Y-64135000D02*
X132207000Y-68199000D01*
X131840000Y-62865000D02*
X131840000Y-63768000D01*
X130810000Y-69596000D02*
X130810000Y-69770000D01*
X131840000Y-63768000D02*
X132207000Y-64135000D01*
X130810000Y-69913500D02*
X130810000Y-69770000D01*
X129667000Y-71056500D02*
X130810000Y-69913500D01*
X129875000Y-74930000D02*
X129667000Y-74722000D01*
X129667000Y-74722000D02*
X129667000Y-71056500D01*
X139185000Y-60565000D02*
X139340000Y-60720000D01*
X135890000Y-60565000D02*
X139185000Y-60565000D01*
X133985000Y-87870000D02*
X133745000Y-87630000D01*
X133985000Y-90060000D02*
X133985000Y-87870000D01*
X148590000Y-90297000D02*
X148590000Y-91490800D01*
X147828000Y-89535000D02*
X148590000Y-90297000D01*
X143510000Y-91490800D02*
X143510000Y-89535000D01*
X143510000Y-89535000D02*
X147828000Y-89535000D01*
X140970000Y-86309200D02*
X140970000Y-88011000D01*
X140970000Y-89535000D02*
X143510000Y-89535000D01*
X140970000Y-88011000D02*
X140970000Y-89535000D01*
X139340000Y-62082000D02*
X139319000Y-62103000D01*
X139340000Y-60720000D02*
X139340000Y-62082000D01*
X134493000Y-54610000D02*
X133015000Y-54610000D01*
X134827000Y-53260000D02*
X135890000Y-53260000D01*
X134493000Y-54610000D02*
X134493000Y-53594000D01*
X134493000Y-53594000D02*
X134827000Y-53260000D01*
X135890000Y-60565000D02*
X134860000Y-60565000D01*
X134493000Y-60198000D02*
X134493000Y-54610000D01*
X134860000Y-60565000D02*
X134493000Y-60198000D01*
X132842000Y-91567000D02*
X133858000Y-91567000D01*
X130810000Y-93380000D02*
X131029000Y-93380000D01*
X131029000Y-93380000D02*
X132842000Y-91567000D01*
X136906000Y-91567000D02*
X133858000Y-91567000D01*
X133985000Y-91567000D02*
X133985000Y-90060000D01*
X137160000Y-91567000D02*
X136906000Y-91567000D01*
X137160000Y-94234000D02*
X137160000Y-91567000D01*
X138430000Y-95250000D02*
X138176000Y-95250000D01*
X138176000Y-95250000D02*
X137160000Y-94234000D01*
X137622000Y-91105000D02*
X138430000Y-91105000D01*
X137160000Y-91567000D02*
X137622000Y-91105000D01*
X148590000Y-95758000D02*
X148590000Y-91490800D01*
X147320000Y-96125000D02*
X148223000Y-96125000D01*
X148223000Y-96125000D02*
X148590000Y-95758000D01*
X139400000Y-91105000D02*
X140970000Y-89535000D01*
X138430000Y-91105000D02*
X139400000Y-91105000D01*
X141300000Y-50078588D02*
X141300000Y-48955000D01*
X136328990Y-51758010D02*
X139620578Y-51758010D01*
X139620578Y-51758010D02*
X141300000Y-50078588D01*
X135890000Y-53260000D02*
X135890000Y-52197000D01*
X135890000Y-52197000D02*
X136328990Y-51758010D01*
X145364200Y-66040000D02*
X145313400Y-66090800D01*
X135802400Y-75325000D02*
X135940800Y-75463400D01*
X133985000Y-75325000D02*
X135802400Y-75325000D01*
X146749800Y-72593200D02*
X147320000Y-72023000D01*
X145313400Y-72593200D02*
X146749800Y-72593200D01*
X133590000Y-62865000D02*
X133590000Y-62724000D01*
X133590000Y-62724000D02*
X132334000Y-61468000D01*
X132334000Y-61468000D02*
X130683000Y-61468000D01*
X130683000Y-61468000D02*
X129540000Y-62611000D01*
X129540000Y-62611000D02*
X129540000Y-66675000D01*
X129855000Y-66990000D02*
X130810000Y-66990000D01*
X129540000Y-66675000D02*
X129855000Y-66990000D01*
X145313400Y-66090800D02*
X145313400Y-65557400D01*
X145313400Y-65557400D02*
X144526000Y-64770000D01*
X144526000Y-64770000D02*
X144526000Y-62484000D01*
X145274000Y-61736000D02*
X146050000Y-61736000D01*
X144526000Y-62484000D02*
X145274000Y-61736000D01*
X147035000Y-61736000D02*
X146050000Y-61736000D01*
X147320000Y-62021000D02*
X147035000Y-61736000D01*
X147320000Y-72023000D02*
X147320000Y-71120000D01*
X141960600Y-73939400D02*
X142113000Y-73787000D01*
X141960600Y-75463400D02*
X141960600Y-73939400D01*
X141986000Y-73914000D02*
X142113000Y-73787000D01*
X147320000Y-71120000D02*
X147320000Y-62021000D01*
X130810000Y-77470000D02*
X130810000Y-72470000D01*
X135940800Y-63169800D02*
X135940800Y-64236600D01*
X133590000Y-62865000D02*
X135636000Y-62865000D01*
X135636000Y-62865000D02*
X135940800Y-63169800D01*
X130810000Y-73609200D02*
X134086600Y-73609200D01*
X130810000Y-72470000D02*
X130810000Y-73609200D01*
X141097000Y-72771000D02*
X142113000Y-73787000D01*
X137287000Y-72771000D02*
X141097000Y-72771000D01*
X135940800Y-75463400D02*
X135940800Y-74117200D01*
X135940800Y-74117200D02*
X137287000Y-72771000D01*
X133463000Y-75325000D02*
X133985000Y-75325000D01*
X130810000Y-76327000D02*
X132461000Y-76327000D01*
X132461000Y-76327000D02*
X133463000Y-75325000D01*
X133858000Y-60452000D02*
X133858000Y-57993000D01*
X135128000Y-61722000D02*
X133858000Y-60452000D01*
X136653410Y-61722000D02*
X135128000Y-61722000D01*
X133858000Y-57993000D02*
X133015000Y-57150000D01*
X137947400Y-64236600D02*
X137947400Y-63015990D01*
X137947400Y-63015990D02*
X136653410Y-61722000D01*
X138938000Y-76708000D02*
X138938000Y-75463400D01*
X140035000Y-77805000D02*
X138938000Y-76708000D01*
X142240000Y-81675000D02*
X141619000Y-81675000D01*
X140889000Y-80945000D02*
X140889000Y-77805000D01*
X141619000Y-81675000D02*
X140889000Y-80945000D01*
X142240000Y-77805000D02*
X140889000Y-77805000D01*
X140889000Y-77805000D02*
X140035000Y-77805000D01*
X137555000Y-82835000D02*
X138475000Y-81915000D01*
X137555000Y-83820000D02*
X137555000Y-82835000D01*
X138475000Y-80455000D02*
X138920000Y-80010000D01*
X138475000Y-81915000D02*
X138475000Y-80455000D01*
X138455400Y-79545400D02*
X138920000Y-80010000D01*
X138455400Y-75463400D02*
X138455400Y-79545400D01*
X135495000Y-80885000D02*
X134620000Y-80010000D01*
X135495000Y-83820000D02*
X135495000Y-80885000D01*
X134620000Y-79744102D02*
X134620000Y-80010000D01*
X137947400Y-75463400D02*
X137947400Y-76809600D01*
X137947400Y-76809600D02*
X136779000Y-77978000D01*
X136779000Y-77978000D02*
X136779000Y-79629000D01*
X136398000Y-80010000D02*
X134620000Y-80010000D01*
X136779000Y-79629000D02*
X136398000Y-80010000D01*
X129841264Y-80010000D02*
X128905000Y-79073736D01*
X130810000Y-80010000D02*
X129841264Y-80010000D01*
X128905000Y-79073736D02*
X128905000Y-68961000D01*
X128905000Y-68961000D02*
X129413000Y-68453000D01*
X129413000Y-68453000D02*
X129413000Y-68453000D01*
X136956800Y-66116200D02*
X136956800Y-64236600D01*
X136906000Y-66167000D02*
X136956800Y-66116200D01*
X134924800Y-66090800D02*
X135890000Y-67056000D01*
X134086600Y-66090800D02*
X134924800Y-66090800D01*
X131780000Y-98125000D02*
X130810000Y-98125000D01*
X133350000Y-99060000D02*
X132715000Y-99060000D01*
X132715000Y-99060000D02*
X131780000Y-98125000D01*
X142575000Y-98125000D02*
X140970000Y-98125000D01*
X143510000Y-99060000D02*
X142575000Y-98125000D01*
X131745000Y-74757000D02*
X132207000Y-74295000D01*
X131745000Y-74930000D02*
X131745000Y-74757000D01*
X132207000Y-74295000D02*
X134874000Y-74295000D01*
X134874000Y-74295000D02*
X135382000Y-73787000D01*
X134975600Y-71602600D02*
X134086600Y-71602600D01*
X135382000Y-73787000D02*
X135382000Y-72009000D01*
X135382000Y-72009000D02*
X134975600Y-71602600D01*
X143459200Y-75463400D02*
X143459200Y-76149200D01*
X143459200Y-76149200D02*
X143637000Y-76327000D01*
X143637000Y-76327000D02*
X144018000Y-76327000D01*
X144018000Y-76327000D02*
X144272000Y-76073000D01*
X144272000Y-76073000D02*
X144272000Y-75692000D01*
X144272000Y-75692000D02*
X144272000Y-75692000D01*
X140462000Y-76450000D02*
X140847000Y-76835000D01*
X140462000Y-75463400D02*
X140462000Y-76450000D01*
X140847000Y-76835000D02*
X143383000Y-76835000D01*
X143383000Y-76835000D02*
X144018000Y-77470000D01*
X144018000Y-77470000D02*
X144018000Y-77470000D01*
X145115000Y-82550000D02*
X145115000Y-82088000D01*
X148082000Y-81026000D02*
X148082000Y-77214589D01*
X147828000Y-81280000D02*
X148082000Y-81026000D01*
X145115000Y-81590000D02*
X145425000Y-81280000D01*
X145425000Y-81280000D02*
X147828000Y-81280000D01*
X144400410Y-74295000D02*
X141452600Y-71347190D01*
X145162411Y-74295000D02*
X144400410Y-74295000D01*
X141452600Y-71347190D02*
X141452600Y-64236600D01*
X148082000Y-77214589D02*
X145162411Y-74295000D01*
X145115000Y-82550000D02*
X145115000Y-81590000D01*
X140944600Y-70586600D02*
X140944600Y-67081400D01*
X140944600Y-67081400D02*
X140944600Y-64236600D01*
X144272000Y-74803000D02*
X140944600Y-71475600D01*
X140944600Y-71475600D02*
X140944600Y-67081400D01*
X145034000Y-74803000D02*
X144272000Y-74803000D01*
X146985000Y-80010000D02*
X146985000Y-76754000D01*
X146985000Y-76754000D02*
X145034000Y-74803000D01*
X130810000Y-91105000D02*
X130637000Y-91105000D01*
X130637000Y-91105000D02*
X129667000Y-92075000D01*
X129667000Y-92075000D02*
X129667000Y-94742000D01*
X130175000Y-95250000D02*
X130810000Y-95250000D01*
X129667000Y-94742000D02*
X130175000Y-95250000D01*
X131064000Y-95250000D02*
X130810000Y-95250000D01*
X132334000Y-93980000D02*
X131064000Y-95250000D01*
X136017000Y-93980000D02*
X132334000Y-93980000D01*
X136525000Y-95360000D02*
X136525000Y-94488000D01*
X136525000Y-94488000D02*
X136017000Y-93980000D01*
X130810000Y-88392000D02*
X130810000Y-89235000D01*
X134086600Y-71094600D02*
X135700920Y-71094600D01*
X135700920Y-71094600D02*
X136111980Y-71505660D01*
X142240000Y-85344000D02*
X142240000Y-86309200D01*
X138603000Y-89235000D02*
X139827000Y-88011000D01*
X139827000Y-88011000D02*
X139827000Y-85471000D01*
X138430000Y-89235000D02*
X138603000Y-89235000D01*
X139827000Y-85471000D02*
X140462000Y-84836000D01*
X140462000Y-84836000D02*
X141732000Y-84836000D01*
X141732000Y-84836000D02*
X142240000Y-85344000D01*
X143510000Y-85090000D02*
X143510000Y-86309200D01*
X138430000Y-92583000D02*
X138430000Y-93380000D01*
X142443200Y-65862200D02*
X142875000Y-66294000D01*
X142443200Y-64236600D02*
X142443200Y-65862200D01*
X144780000Y-94315000D02*
X144607000Y-94315000D01*
X144607000Y-94315000D02*
X143383000Y-93091000D01*
X143383000Y-93091000D02*
X142494000Y-93091000D01*
X142240000Y-92837000D02*
X142240000Y-91490800D01*
X142494000Y-93091000D02*
X142240000Y-92837000D01*
X140970000Y-93045000D02*
X140970000Y-91490800D01*
X142240000Y-94315000D02*
X140970000Y-93045000D01*
X141960600Y-64236600D02*
X141960600Y-66965990D01*
X141960600Y-66965990D02*
X142177610Y-67183000D01*
X144780000Y-84773449D02*
X144983543Y-84569906D01*
X144780000Y-86309200D02*
X144780000Y-84773449D01*
X146050000Y-86309200D02*
X146050000Y-84582000D01*
X135708200Y-69469000D02*
X136144000Y-69469000D01*
X135073200Y-70104000D02*
X135708200Y-69469000D01*
X134086600Y-70104000D02*
X135073200Y-70104000D01*
X147320000Y-86309200D02*
X147320000Y-84582000D01*
X136017000Y-70612000D02*
X136144000Y-70485000D01*
X134086600Y-70612000D02*
X136017000Y-70612000D01*
M02*
