M48
; DRILL file {KiCad 5.1.10-88a1d61d58~88~ubuntu18.04.1} date Fri Oct  8 18:06:32 2021
; FORMAT={-:-/ absolute / metric / decimal}
; #@! TF.CreationDate,2021-10-08T18:06:32+03:00
; #@! TF.GenerationSoftware,Kicad,Pcbnew,5.1.10-88a1d61d58~88~ubuntu18.04.1
; #@! TF.FileFunction,Plated,1,2,PTH
FMAT,2
METRIC
T1C0.400
T2C1.020
T3C1.400
%
G90
G05
T1
X129.413Y-68.453
X130.81Y-64.389
X130.81Y-67.564
X130.81Y-71.628
X130.81Y-88.392
X132.461Y-71.374
X132.461Y-72.39
X132.715Y-89.027
X134.747Y-64.643
X135.89Y-57.531
X135.89Y-67.056
X136.112Y-71.506
X136.144Y-69.469
X136.144Y-70.485
X136.906Y-66.167
X138.176Y-86.36
X138.303Y-58.42
X138.43Y-92.583
X139.319Y-62.103
X139.319Y-82.931
X139.7Y-73.66
X140.97Y-88.011
X142.113Y-73.787
X142.178Y-67.183
X142.24Y-79.248
X142.24Y-84.201
X142.303Y-96.837
X142.875Y-66.294
X143.51Y-85.09
X144.018Y-77.47
X144.018Y-80.01
X144.272Y-75.692
X144.78Y-92.964
X144.984Y-84.57
X146.05Y-84.582
X147.32Y-71.12
X147.32Y-84.582
X147.32Y-93.091
X147.701Y-75.565
X148.082Y-82.55
T2
X130.81Y-77.47
X130.81Y-80.01
X130.81Y-82.55
X130.81Y-85.09
X133.35Y-99.06
X135.89Y-99.06
X143.51Y-99.06
X146.05Y-99.06
T3
X132.08Y-104.775
X137.08Y-104.775
X142.875Y-104.775
X147.875Y-104.775
T0
M30
