G04 #@! TF.GenerationSoftware,KiCad,Pcbnew,5.1.10-88a1d61d58~88~ubuntu18.04.1*
G04 #@! TF.CreationDate,2021-10-08T18:05:20+03:00*
G04 #@! TF.ProjectId,canhacker,63616e68-6163-46b6-9572-2e6b69636164,rev?*
G04 #@! TF.SameCoordinates,Original*
G04 #@! TF.FileFunction,Legend,Top*
G04 #@! TF.FilePolarity,Positive*
%FSLAX46Y46*%
G04 Gerber Fmt 4.6, Leading zero omitted, Abs format (unit mm)*
G04 Created by KiCad (PCBNEW 5.1.10-88a1d61d58~88~ubuntu18.04.1) date 2021-10-08 18:05:20*
%MOMM*%
%LPD*%
G01*
G04 APERTURE LIST*
%ADD10C,0.120000*%
%ADD11C,0.250000*%
%ADD12R,2.000000X2.500000*%
%ADD13R,0.500000X2.300000*%
%ADD14R,1.420000X1.000000*%
%ADD15R,1.000000X1.420000*%
%ADD16C,1.370000*%
%ADD17R,1.370000X1.370000*%
%ADD18R,1.470000X1.160000*%
%ADD19R,1.160000X1.470000*%
%ADD20R,1.230000X1.710000*%
%ADD21R,1.500000X1.300000*%
%ADD22R,1.710000X1.230000*%
%ADD23R,2.150000X3.250000*%
%ADD24R,2.150000X0.950000*%
%ADD25R,1.950000X2.950000*%
%ADD26R,0.600000X1.300000*%
%ADD27R,1.473200X0.279400*%
%ADD28R,0.279400X1.473200*%
%ADD29R,0.533400X1.701800*%
%ADD30C,2.100000*%
%ADD31R,2.100000X2.100000*%
G04 APERTURE END LIST*
D10*
X142213000Y-50267000D02*
G75*
G03*
X142213000Y-50267000I-100000J0D01*
G01*
X140270000Y-99180000D02*
X140270000Y-98940000D01*
X141670000Y-99180000D02*
X141670000Y-98940000D01*
X130110000Y-99180000D02*
X130110000Y-98940000D01*
X131510000Y-99180000D02*
X131510000Y-98940000D01*
X141540000Y-95370000D02*
X141540000Y-95130000D01*
X142940000Y-95370000D02*
X142940000Y-95130000D01*
X144080000Y-95370000D02*
X144080000Y-95130000D01*
X145480000Y-95370000D02*
X145480000Y-95130000D01*
X139130000Y-94195000D02*
X139130000Y-94435000D01*
X137730000Y-94195000D02*
X137730000Y-94435000D01*
X139130000Y-90050000D02*
X139130000Y-90290000D01*
X137730000Y-90050000D02*
X137730000Y-90290000D01*
X130110000Y-94435000D02*
X130110000Y-94195000D01*
X131510000Y-94435000D02*
X131510000Y-94195000D01*
X131510000Y-90050000D02*
X131510000Y-90290000D01*
X130110000Y-90050000D02*
X130110000Y-90290000D01*
X146170000Y-80710000D02*
X145930000Y-80710000D01*
X146170000Y-79310000D02*
X145930000Y-79310000D01*
X145930000Y-81850000D02*
X146170000Y-81850000D01*
X145930000Y-83250000D02*
X146170000Y-83250000D01*
X130690000Y-74230000D02*
X130930000Y-74230000D01*
X130690000Y-75630000D02*
X130930000Y-75630000D01*
X142940000Y-78620000D02*
X142940000Y-78860000D01*
X141540000Y-78620000D02*
X141540000Y-78860000D01*
X131960000Y-56450000D02*
X132200000Y-56450000D01*
X131960000Y-57850000D02*
X132200000Y-57850000D01*
X131960000Y-58990000D02*
X132200000Y-58990000D01*
X131960000Y-60390000D02*
X132200000Y-60390000D01*
X131960000Y-53910000D02*
X132200000Y-53910000D01*
X131960000Y-55310000D02*
X132200000Y-55310000D01*
X129875000Y-72720000D02*
X129875000Y-69520000D01*
X131745000Y-72720000D02*
X131745000Y-69520000D01*
X130910000Y-73920000D02*
G75*
G03*
X130910000Y-73920000I-100000J0D01*
G01*
X146380000Y-54275000D02*
X143180000Y-54275000D01*
X146380000Y-52405000D02*
X143180000Y-52405000D01*
X147680000Y-53340000D02*
G75*
G03*
X147680000Y-53340000I-100000J0D01*
G01*
X136825000Y-53010000D02*
X136825000Y-56210000D01*
X134955000Y-53010000D02*
X134955000Y-56210000D01*
X135990000Y-51810000D02*
G75*
G03*
X135990000Y-51810000I-100000J0D01*
G01*
X140490000Y-61670000D02*
X143990000Y-61670000D01*
X143990000Y-61670000D02*
X143990000Y-60430000D01*
X140490000Y-55170000D02*
X143990000Y-55170000D01*
X143990000Y-55170000D02*
X143990000Y-56410000D01*
X137740000Y-56120000D02*
G75*
G03*
X137740000Y-56120000I-100000J0D01*
G01*
X139270000Y-81710000D02*
X134270000Y-81710000D01*
X134270000Y-78310000D02*
X139270000Y-78310000D01*
X136725000Y-91821000D02*
G75*
G03*
X136725000Y-91821000I-200000J0D01*
G01*
X136017000Y-94620000D02*
X135763000Y-94620000D01*
X134747000Y-94620000D02*
X134493000Y-94620000D01*
X133477000Y-94620000D02*
X133223000Y-94620000D01*
X133477000Y-90810000D02*
X133223000Y-90810000D01*
X134747000Y-90810000D02*
X134493000Y-90810000D01*
X136017000Y-90810000D02*
X135763000Y-90810000D01*
X132220000Y-91310000D02*
X132220000Y-90910000D01*
X137020000Y-91310000D02*
X137020000Y-90910000D01*
X132220000Y-91310000D02*
X137020000Y-91310000D01*
X137020000Y-91310000D02*
X137020000Y-94510000D01*
X132220000Y-94510000D02*
X132220000Y-91310000D01*
X143916400Y-74853800D02*
X144703800Y-74853800D01*
X134696200Y-74853800D02*
X135483600Y-74853800D01*
X134696200Y-64846200D02*
X134696200Y-65633600D01*
X144703800Y-64846200D02*
X143916400Y-64846200D01*
X144703800Y-74853800D02*
X144703800Y-74066400D01*
X144703800Y-65633600D02*
X144703800Y-64846200D01*
X135483600Y-64846200D02*
X134696200Y-64846200D01*
X134696200Y-74066400D02*
X134696200Y-74853800D01*
X149148800Y-88595200D02*
X149148800Y-87299800D01*
X149148800Y-89204800D02*
X149148800Y-88595200D01*
X149148800Y-90500200D02*
X149148800Y-89204800D01*
X140411200Y-87299800D02*
X140411200Y-90500200D01*
X149148800Y-89204800D02*
G75*
G02*
X149148800Y-88595200I0J304800D01*
G01*
D11*
X139366666Y-42124380D02*
X139366666Y-42838666D01*
X139319047Y-42981523D01*
X139223809Y-43076761D01*
X139080952Y-43124380D01*
X138985714Y-43124380D01*
X140366666Y-43124380D02*
X139795238Y-43124380D01*
X140080952Y-43124380D02*
X140080952Y-42124380D01*
X139985714Y-42267238D01*
X139890476Y-42362476D01*
X139795238Y-42410095D01*
X139898380Y-99829857D02*
X139422190Y-100163190D01*
X139898380Y-100401285D02*
X138898380Y-100401285D01*
X138898380Y-100020333D01*
X138946000Y-99925095D01*
X138993619Y-99877476D01*
X139088857Y-99829857D01*
X139231714Y-99829857D01*
X139326952Y-99877476D01*
X139374571Y-99925095D01*
X139422190Y-100020333D01*
X139422190Y-100401285D01*
X139898380Y-98877476D02*
X139898380Y-99448904D01*
X139898380Y-99163190D02*
X138898380Y-99163190D01*
X139041238Y-99258428D01*
X139136476Y-99353666D01*
X139184095Y-99448904D01*
X138898380Y-98544142D02*
X138898380Y-97877476D01*
X139898380Y-98306047D01*
X129738380Y-99702857D02*
X129262190Y-100036190D01*
X129738380Y-100274285D02*
X128738380Y-100274285D01*
X128738380Y-99893333D01*
X128786000Y-99798095D01*
X128833619Y-99750476D01*
X128928857Y-99702857D01*
X129071714Y-99702857D01*
X129166952Y-99750476D01*
X129214571Y-99798095D01*
X129262190Y-99893333D01*
X129262190Y-100274285D01*
X129738380Y-98750476D02*
X129738380Y-99321904D01*
X129738380Y-99036190D02*
X128738380Y-99036190D01*
X128881238Y-99131428D01*
X128976476Y-99226666D01*
X129024095Y-99321904D01*
X128738380Y-97893333D02*
X128738380Y-98083809D01*
X128786000Y-98179047D01*
X128833619Y-98226666D01*
X128976476Y-98321904D01*
X129166952Y-98369523D01*
X129547904Y-98369523D01*
X129643142Y-98321904D01*
X129690761Y-98274285D01*
X129738380Y-98179047D01*
X129738380Y-97988571D01*
X129690761Y-97893333D01*
X129643142Y-97845714D01*
X129547904Y-97798095D01*
X129309809Y-97798095D01*
X129214571Y-97845714D01*
X129166952Y-97893333D01*
X129119333Y-97988571D01*
X129119333Y-98179047D01*
X129166952Y-98274285D01*
X129214571Y-98321904D01*
X129309809Y-98369523D01*
X141041380Y-95892857D02*
X140565190Y-96226190D01*
X141041380Y-96464285D02*
X140041380Y-96464285D01*
X140041380Y-96083333D01*
X140089000Y-95988095D01*
X140136619Y-95940476D01*
X140231857Y-95892857D01*
X140374714Y-95892857D01*
X140469952Y-95940476D01*
X140517571Y-95988095D01*
X140565190Y-96083333D01*
X140565190Y-96464285D01*
X141041380Y-94940476D02*
X141041380Y-95511904D01*
X141041380Y-95226190D02*
X140041380Y-95226190D01*
X140184238Y-95321428D01*
X140279476Y-95416666D01*
X140327095Y-95511904D01*
X140041380Y-94035714D02*
X140041380Y-94511904D01*
X140517571Y-94559523D01*
X140469952Y-94511904D01*
X140422333Y-94416666D01*
X140422333Y-94178571D01*
X140469952Y-94083333D01*
X140517571Y-94035714D01*
X140612809Y-93988095D01*
X140850904Y-93988095D01*
X140946142Y-94035714D01*
X140993761Y-94083333D01*
X141041380Y-94178571D01*
X141041380Y-94416666D01*
X140993761Y-94511904D01*
X140946142Y-94559523D01*
X144137142Y-97988380D02*
X143803809Y-97512190D01*
X143565714Y-97988380D02*
X143565714Y-96988380D01*
X143946666Y-96988380D01*
X144041904Y-97036000D01*
X144089523Y-97083619D01*
X144137142Y-97178857D01*
X144137142Y-97321714D01*
X144089523Y-97416952D01*
X144041904Y-97464571D01*
X143946666Y-97512190D01*
X143565714Y-97512190D01*
X145089523Y-97988380D02*
X144518095Y-97988380D01*
X144803809Y-97988380D02*
X144803809Y-96988380D01*
X144708571Y-97131238D01*
X144613333Y-97226476D01*
X144518095Y-97274095D01*
X145946666Y-97321714D02*
X145946666Y-97988380D01*
X145708571Y-96940761D02*
X145470476Y-97655047D01*
X146089523Y-97655047D01*
X137660142Y-97353380D02*
X137326809Y-96877190D01*
X137088714Y-97353380D02*
X137088714Y-96353380D01*
X137469666Y-96353380D01*
X137564904Y-96401000D01*
X137612523Y-96448619D01*
X137660142Y-96543857D01*
X137660142Y-96686714D01*
X137612523Y-96781952D01*
X137564904Y-96829571D01*
X137469666Y-96877190D01*
X137088714Y-96877190D01*
X138612523Y-97353380D02*
X138041095Y-97353380D01*
X138326809Y-97353380D02*
X138326809Y-96353380D01*
X138231571Y-96496238D01*
X138136333Y-96591476D01*
X138041095Y-96639095D01*
X138945857Y-96353380D02*
X139564904Y-96353380D01*
X139231571Y-96734333D01*
X139374428Y-96734333D01*
X139469666Y-96781952D01*
X139517285Y-96829571D01*
X139564904Y-96924809D01*
X139564904Y-97162904D01*
X139517285Y-97258142D01*
X139469666Y-97305761D01*
X139374428Y-97353380D01*
X139088714Y-97353380D01*
X138993476Y-97305761D01*
X138945857Y-97258142D01*
X137787142Y-88336380D02*
X137453809Y-87860190D01*
X137215714Y-88336380D02*
X137215714Y-87336380D01*
X137596666Y-87336380D01*
X137691904Y-87384000D01*
X137739523Y-87431619D01*
X137787142Y-87526857D01*
X137787142Y-87669714D01*
X137739523Y-87764952D01*
X137691904Y-87812571D01*
X137596666Y-87860190D01*
X137215714Y-87860190D01*
X138739523Y-88336380D02*
X138168095Y-88336380D01*
X138453809Y-88336380D02*
X138453809Y-87336380D01*
X138358571Y-87479238D01*
X138263333Y-87574476D01*
X138168095Y-87622095D01*
X139120476Y-87431619D02*
X139168095Y-87384000D01*
X139263333Y-87336380D01*
X139501428Y-87336380D01*
X139596666Y-87384000D01*
X139644285Y-87431619D01*
X139691904Y-87526857D01*
X139691904Y-87622095D01*
X139644285Y-87764952D01*
X139072857Y-88336380D01*
X139691904Y-88336380D01*
X129738380Y-95003857D02*
X129262190Y-95337190D01*
X129738380Y-95575285D02*
X128738380Y-95575285D01*
X128738380Y-95194333D01*
X128786000Y-95099095D01*
X128833619Y-95051476D01*
X128928857Y-95003857D01*
X129071714Y-95003857D01*
X129166952Y-95051476D01*
X129214571Y-95099095D01*
X129262190Y-95194333D01*
X129262190Y-95575285D01*
X129738380Y-94051476D02*
X129738380Y-94622904D01*
X129738380Y-94337190D02*
X128738380Y-94337190D01*
X128881238Y-94432428D01*
X128976476Y-94527666D01*
X129024095Y-94622904D01*
X129738380Y-93099095D02*
X129738380Y-93670523D01*
X129738380Y-93384809D02*
X128738380Y-93384809D01*
X128881238Y-93480047D01*
X128976476Y-93575285D01*
X129024095Y-93670523D01*
X129611380Y-90812857D02*
X129135190Y-91146190D01*
X129611380Y-91384285D02*
X128611380Y-91384285D01*
X128611380Y-91003333D01*
X128659000Y-90908095D01*
X128706619Y-90860476D01*
X128801857Y-90812857D01*
X128944714Y-90812857D01*
X129039952Y-90860476D01*
X129087571Y-90908095D01*
X129135190Y-91003333D01*
X129135190Y-91384285D01*
X129611380Y-89860476D02*
X129611380Y-90431904D01*
X129611380Y-90146190D02*
X128611380Y-90146190D01*
X128754238Y-90241428D01*
X128849476Y-90336666D01*
X128897095Y-90431904D01*
X128611380Y-89241428D02*
X128611380Y-89146190D01*
X128659000Y-89050952D01*
X128706619Y-89003333D01*
X128801857Y-88955714D01*
X128992333Y-88908095D01*
X129230428Y-88908095D01*
X129420904Y-88955714D01*
X129516142Y-89003333D01*
X129563761Y-89050952D01*
X129611380Y-89146190D01*
X129611380Y-89241428D01*
X129563761Y-89336666D01*
X129516142Y-89384285D01*
X129420904Y-89431904D01*
X129230428Y-89479523D01*
X128992333Y-89479523D01*
X128801857Y-89431904D01*
X128706619Y-89384285D01*
X128659000Y-89336666D01*
X128611380Y-89241428D01*
X147883619Y-79843333D02*
X148359809Y-79510000D01*
X147883619Y-79271904D02*
X148883619Y-79271904D01*
X148883619Y-79652857D01*
X148836000Y-79748095D01*
X148788380Y-79795714D01*
X148693142Y-79843333D01*
X148550285Y-79843333D01*
X148455047Y-79795714D01*
X148407428Y-79748095D01*
X148359809Y-79652857D01*
X148359809Y-79271904D01*
X147883619Y-80319523D02*
X147883619Y-80510000D01*
X147931238Y-80605238D01*
X147978857Y-80652857D01*
X148121714Y-80748095D01*
X148312190Y-80795714D01*
X148693142Y-80795714D01*
X148788380Y-80748095D01*
X148836000Y-80700476D01*
X148883619Y-80605238D01*
X148883619Y-80414761D01*
X148836000Y-80319523D01*
X148788380Y-80271904D01*
X148693142Y-80224285D01*
X148455047Y-80224285D01*
X148359809Y-80271904D01*
X148312190Y-80319523D01*
X148264571Y-80414761D01*
X148264571Y-80605238D01*
X148312190Y-80700476D01*
X148359809Y-80748095D01*
X148455047Y-80795714D01*
X147883619Y-82383333D02*
X148359809Y-82050000D01*
X147883619Y-81811904D02*
X148883619Y-81811904D01*
X148883619Y-82192857D01*
X148836000Y-82288095D01*
X148788380Y-82335714D01*
X148693142Y-82383333D01*
X148550285Y-82383333D01*
X148455047Y-82335714D01*
X148407428Y-82288095D01*
X148359809Y-82192857D01*
X148359809Y-81811904D01*
X148455047Y-82954761D02*
X148502666Y-82859523D01*
X148550285Y-82811904D01*
X148645523Y-82764285D01*
X148693142Y-82764285D01*
X148788380Y-82811904D01*
X148836000Y-82859523D01*
X148883619Y-82954761D01*
X148883619Y-83145238D01*
X148836000Y-83240476D01*
X148788380Y-83288095D01*
X148693142Y-83335714D01*
X148645523Y-83335714D01*
X148550285Y-83288095D01*
X148502666Y-83240476D01*
X148455047Y-83145238D01*
X148455047Y-82954761D01*
X148407428Y-82859523D01*
X148359809Y-82811904D01*
X148264571Y-82764285D01*
X148074095Y-82764285D01*
X147978857Y-82811904D01*
X147931238Y-82859523D01*
X147883619Y-82954761D01*
X147883619Y-83145238D01*
X147931238Y-83240476D01*
X147978857Y-83288095D01*
X148074095Y-83335714D01*
X148264571Y-83335714D01*
X148359809Y-83288095D01*
X148407428Y-83240476D01*
X148455047Y-83145238D01*
X129738380Y-77001666D02*
X129262190Y-77335000D01*
X129738380Y-77573095D02*
X128738380Y-77573095D01*
X128738380Y-77192142D01*
X128786000Y-77096904D01*
X128833619Y-77049285D01*
X128928857Y-77001666D01*
X129071714Y-77001666D01*
X129166952Y-77049285D01*
X129214571Y-77096904D01*
X129262190Y-77192142D01*
X129262190Y-77573095D01*
X128738380Y-76096904D02*
X128738380Y-76573095D01*
X129214571Y-76620714D01*
X129166952Y-76573095D01*
X129119333Y-76477857D01*
X129119333Y-76239761D01*
X129166952Y-76144523D01*
X129214571Y-76096904D01*
X129309809Y-76049285D01*
X129547904Y-76049285D01*
X129643142Y-76096904D01*
X129690761Y-76144523D01*
X129738380Y-76239761D01*
X129738380Y-76477857D01*
X129690761Y-76573095D01*
X129643142Y-76620714D01*
X141295380Y-79033666D02*
X140819190Y-79367000D01*
X141295380Y-79605095D02*
X140295380Y-79605095D01*
X140295380Y-79224142D01*
X140343000Y-79128904D01*
X140390619Y-79081285D01*
X140485857Y-79033666D01*
X140628714Y-79033666D01*
X140723952Y-79081285D01*
X140771571Y-79128904D01*
X140819190Y-79224142D01*
X140819190Y-79605095D01*
X140628714Y-78176523D02*
X141295380Y-78176523D01*
X140247761Y-78414619D02*
X140962047Y-78652714D01*
X140962047Y-78033666D01*
X149328142Y-95892857D02*
X149375761Y-95940476D01*
X149423380Y-96083333D01*
X149423380Y-96178571D01*
X149375761Y-96321428D01*
X149280523Y-96416666D01*
X149185285Y-96464285D01*
X148994809Y-96511904D01*
X148851952Y-96511904D01*
X148661476Y-96464285D01*
X148566238Y-96416666D01*
X148471000Y-96321428D01*
X148423380Y-96178571D01*
X148423380Y-96083333D01*
X148471000Y-95940476D01*
X148518619Y-95892857D01*
X149423380Y-94940476D02*
X149423380Y-95511904D01*
X149423380Y-95226190D02*
X148423380Y-95226190D01*
X148566238Y-95321428D01*
X148661476Y-95416666D01*
X148709095Y-95511904D01*
X148423380Y-94035714D02*
X148423380Y-94511904D01*
X148899571Y-94559523D01*
X148851952Y-94511904D01*
X148804333Y-94416666D01*
X148804333Y-94178571D01*
X148851952Y-94083333D01*
X148899571Y-94035714D01*
X148994809Y-93988095D01*
X149232904Y-93988095D01*
X149328142Y-94035714D01*
X149375761Y-94083333D01*
X149423380Y-94178571D01*
X149423380Y-94416666D01*
X149375761Y-94511904D01*
X149328142Y-94559523D01*
X133850142Y-86463142D02*
X133802523Y-86510761D01*
X133659666Y-86558380D01*
X133564428Y-86558380D01*
X133421571Y-86510761D01*
X133326333Y-86415523D01*
X133278714Y-86320285D01*
X133231095Y-86129809D01*
X133231095Y-85986952D01*
X133278714Y-85796476D01*
X133326333Y-85701238D01*
X133421571Y-85606000D01*
X133564428Y-85558380D01*
X133659666Y-85558380D01*
X133802523Y-85606000D01*
X133850142Y-85653619D01*
X134802523Y-86558380D02*
X134231095Y-86558380D01*
X134516809Y-86558380D02*
X134516809Y-85558380D01*
X134421571Y-85701238D01*
X134326333Y-85796476D01*
X134231095Y-85844095D01*
X135659666Y-85891714D02*
X135659666Y-86558380D01*
X135421571Y-85510761D02*
X135183476Y-86225047D01*
X135802523Y-86225047D01*
X133596142Y-82780142D02*
X133548523Y-82827761D01*
X133405666Y-82875380D01*
X133310428Y-82875380D01*
X133167571Y-82827761D01*
X133072333Y-82732523D01*
X133024714Y-82637285D01*
X132977095Y-82446809D01*
X132977095Y-82303952D01*
X133024714Y-82113476D01*
X133072333Y-82018238D01*
X133167571Y-81923000D01*
X133310428Y-81875380D01*
X133405666Y-81875380D01*
X133548523Y-81923000D01*
X133596142Y-81970619D01*
X134548523Y-82875380D02*
X133977095Y-82875380D01*
X134262809Y-82875380D02*
X134262809Y-81875380D01*
X134167571Y-82018238D01*
X134072333Y-82113476D01*
X133977095Y-82161095D01*
X134881857Y-81875380D02*
X135500904Y-81875380D01*
X135167571Y-82256333D01*
X135310428Y-82256333D01*
X135405666Y-82303952D01*
X135453285Y-82351571D01*
X135500904Y-82446809D01*
X135500904Y-82684904D01*
X135453285Y-82780142D01*
X135405666Y-82827761D01*
X135310428Y-82875380D01*
X135024714Y-82875380D01*
X134929476Y-82827761D01*
X134881857Y-82780142D01*
X131945142Y-61698142D02*
X131897523Y-61745761D01*
X131754666Y-61793380D01*
X131659428Y-61793380D01*
X131516571Y-61745761D01*
X131421333Y-61650523D01*
X131373714Y-61555285D01*
X131326095Y-61364809D01*
X131326095Y-61221952D01*
X131373714Y-61031476D01*
X131421333Y-60936238D01*
X131516571Y-60841000D01*
X131659428Y-60793380D01*
X131754666Y-60793380D01*
X131897523Y-60841000D01*
X131945142Y-60888619D01*
X132897523Y-61793380D02*
X132326095Y-61793380D01*
X132611809Y-61793380D02*
X132611809Y-60793380D01*
X132516571Y-60936238D01*
X132421333Y-61031476D01*
X132326095Y-61079095D01*
X133278476Y-60888619D02*
X133326095Y-60841000D01*
X133421333Y-60793380D01*
X133659428Y-60793380D01*
X133754666Y-60841000D01*
X133802285Y-60888619D01*
X133849904Y-60983857D01*
X133849904Y-61079095D01*
X133802285Y-61221952D01*
X133230857Y-61793380D01*
X133849904Y-61793380D01*
X149328142Y-73540857D02*
X149375761Y-73588476D01*
X149423380Y-73731333D01*
X149423380Y-73826571D01*
X149375761Y-73969428D01*
X149280523Y-74064666D01*
X149185285Y-74112285D01*
X148994809Y-74159904D01*
X148851952Y-74159904D01*
X148661476Y-74112285D01*
X148566238Y-74064666D01*
X148471000Y-73969428D01*
X148423380Y-73826571D01*
X148423380Y-73731333D01*
X148471000Y-73588476D01*
X148518619Y-73540857D01*
X149423380Y-72588476D02*
X149423380Y-73159904D01*
X149423380Y-72874190D02*
X148423380Y-72874190D01*
X148566238Y-72969428D01*
X148661476Y-73064666D01*
X148709095Y-73159904D01*
X149423380Y-71636095D02*
X149423380Y-72207523D01*
X149423380Y-71921809D02*
X148423380Y-71921809D01*
X148566238Y-72017047D01*
X148661476Y-72112285D01*
X148709095Y-72207523D01*
X137025142Y-82780142D02*
X136977523Y-82827761D01*
X136834666Y-82875380D01*
X136739428Y-82875380D01*
X136596571Y-82827761D01*
X136501333Y-82732523D01*
X136453714Y-82637285D01*
X136406095Y-82446809D01*
X136406095Y-82303952D01*
X136453714Y-82113476D01*
X136501333Y-82018238D01*
X136596571Y-81923000D01*
X136739428Y-81875380D01*
X136834666Y-81875380D01*
X136977523Y-81923000D01*
X137025142Y-81970619D01*
X137977523Y-82875380D02*
X137406095Y-82875380D01*
X137691809Y-82875380D02*
X137691809Y-81875380D01*
X137596571Y-82018238D01*
X137501333Y-82113476D01*
X137406095Y-82161095D01*
X138596571Y-81875380D02*
X138691809Y-81875380D01*
X138787047Y-81923000D01*
X138834666Y-81970619D01*
X138882285Y-82065857D01*
X138929904Y-82256333D01*
X138929904Y-82494428D01*
X138882285Y-82684904D01*
X138834666Y-82780142D01*
X138787047Y-82827761D01*
X138691809Y-82875380D01*
X138596571Y-82875380D01*
X138501333Y-82827761D01*
X138453714Y-82780142D01*
X138406095Y-82684904D01*
X138358476Y-82494428D01*
X138358476Y-82256333D01*
X138406095Y-82065857D01*
X138453714Y-81970619D01*
X138501333Y-81923000D01*
X138596571Y-81875380D01*
X144883142Y-62904666D02*
X144930761Y-62952285D01*
X144978380Y-63095142D01*
X144978380Y-63190380D01*
X144930761Y-63333238D01*
X144835523Y-63428476D01*
X144740285Y-63476095D01*
X144549809Y-63523714D01*
X144406952Y-63523714D01*
X144216476Y-63476095D01*
X144121238Y-63428476D01*
X144026000Y-63333238D01*
X143978380Y-63190380D01*
X143978380Y-63095142D01*
X144026000Y-62952285D01*
X144073619Y-62904666D01*
X144978380Y-62428476D02*
X144978380Y-62238000D01*
X144930761Y-62142761D01*
X144883142Y-62095142D01*
X144740285Y-61999904D01*
X144549809Y-61952285D01*
X144168857Y-61952285D01*
X144073619Y-61999904D01*
X144026000Y-62047523D01*
X143978380Y-62142761D01*
X143978380Y-62333238D01*
X144026000Y-62428476D01*
X144073619Y-62476095D01*
X144168857Y-62523714D01*
X144406952Y-62523714D01*
X144502190Y-62476095D01*
X144549809Y-62428476D01*
X144597428Y-62333238D01*
X144597428Y-62142761D01*
X144549809Y-62047523D01*
X144502190Y-61999904D01*
X144406952Y-61952285D01*
X132691142Y-77255666D02*
X132738761Y-77303285D01*
X132786380Y-77446142D01*
X132786380Y-77541380D01*
X132738761Y-77684238D01*
X132643523Y-77779476D01*
X132548285Y-77827095D01*
X132357809Y-77874714D01*
X132214952Y-77874714D01*
X132024476Y-77827095D01*
X131929238Y-77779476D01*
X131834000Y-77684238D01*
X131786380Y-77541380D01*
X131786380Y-77446142D01*
X131834000Y-77303285D01*
X131881619Y-77255666D01*
X132214952Y-76684238D02*
X132167333Y-76779476D01*
X132119714Y-76827095D01*
X132024476Y-76874714D01*
X131976857Y-76874714D01*
X131881619Y-76827095D01*
X131834000Y-76779476D01*
X131786380Y-76684238D01*
X131786380Y-76493761D01*
X131834000Y-76398523D01*
X131881619Y-76350904D01*
X131976857Y-76303285D01*
X132024476Y-76303285D01*
X132119714Y-76350904D01*
X132167333Y-76398523D01*
X132214952Y-76493761D01*
X132214952Y-76684238D01*
X132262571Y-76779476D01*
X132310190Y-76827095D01*
X132405428Y-76874714D01*
X132595904Y-76874714D01*
X132691142Y-76827095D01*
X132738761Y-76779476D01*
X132786380Y-76684238D01*
X132786380Y-76493761D01*
X132738761Y-76398523D01*
X132691142Y-76350904D01*
X132595904Y-76303285D01*
X132405428Y-76303285D01*
X132310190Y-76350904D01*
X132262571Y-76398523D01*
X132214952Y-76493761D01*
X141073142Y-82589666D02*
X141120761Y-82637285D01*
X141168380Y-82780142D01*
X141168380Y-82875380D01*
X141120761Y-83018238D01*
X141025523Y-83113476D01*
X140930285Y-83161095D01*
X140739809Y-83208714D01*
X140596952Y-83208714D01*
X140406476Y-83161095D01*
X140311238Y-83113476D01*
X140216000Y-83018238D01*
X140168380Y-82875380D01*
X140168380Y-82780142D01*
X140216000Y-82637285D01*
X140263619Y-82589666D01*
X140168380Y-82256333D02*
X140168380Y-81589666D01*
X141168380Y-82018238D01*
X130246380Y-57316666D02*
X129770190Y-57650000D01*
X130246380Y-57888095D02*
X129246380Y-57888095D01*
X129246380Y-57507142D01*
X129294000Y-57411904D01*
X129341619Y-57364285D01*
X129436857Y-57316666D01*
X129579714Y-57316666D01*
X129674952Y-57364285D01*
X129722571Y-57411904D01*
X129770190Y-57507142D01*
X129770190Y-57888095D01*
X129246380Y-56983333D02*
X129246380Y-56364285D01*
X129627333Y-56697619D01*
X129627333Y-56554761D01*
X129674952Y-56459523D01*
X129722571Y-56411904D01*
X129817809Y-56364285D01*
X130055904Y-56364285D01*
X130151142Y-56411904D01*
X130198761Y-56459523D01*
X130246380Y-56554761D01*
X130246380Y-56840476D01*
X130198761Y-56935714D01*
X130151142Y-56983333D01*
X130246380Y-59856666D02*
X129770190Y-60190000D01*
X130246380Y-60428095D02*
X129246380Y-60428095D01*
X129246380Y-60047142D01*
X129294000Y-59951904D01*
X129341619Y-59904285D01*
X129436857Y-59856666D01*
X129579714Y-59856666D01*
X129674952Y-59904285D01*
X129722571Y-59951904D01*
X129770190Y-60047142D01*
X129770190Y-60428095D01*
X129341619Y-59475714D02*
X129294000Y-59428095D01*
X129246380Y-59332857D01*
X129246380Y-59094761D01*
X129294000Y-58999523D01*
X129341619Y-58951904D01*
X129436857Y-58904285D01*
X129532095Y-58904285D01*
X129674952Y-58951904D01*
X130246380Y-59523333D01*
X130246380Y-58904285D01*
X130119380Y-54776666D02*
X129643190Y-55110000D01*
X130119380Y-55348095D02*
X129119380Y-55348095D01*
X129119380Y-54967142D01*
X129167000Y-54871904D01*
X129214619Y-54824285D01*
X129309857Y-54776666D01*
X129452714Y-54776666D01*
X129547952Y-54824285D01*
X129595571Y-54871904D01*
X129643190Y-54967142D01*
X129643190Y-55348095D01*
X130119380Y-53824285D02*
X130119380Y-54395714D01*
X130119380Y-54110000D02*
X129119380Y-54110000D01*
X129262238Y-54205238D01*
X129357476Y-54300476D01*
X129405095Y-54395714D01*
X129516142Y-71286666D02*
X129563761Y-71334285D01*
X129611380Y-71477142D01*
X129611380Y-71572380D01*
X129563761Y-71715238D01*
X129468523Y-71810476D01*
X129373285Y-71858095D01*
X129182809Y-71905714D01*
X129039952Y-71905714D01*
X128849476Y-71858095D01*
X128754238Y-71810476D01*
X128659000Y-71715238D01*
X128611380Y-71572380D01*
X128611380Y-71477142D01*
X128659000Y-71334285D01*
X128706619Y-71286666D01*
X128611380Y-70429523D02*
X128611380Y-70620000D01*
X128659000Y-70715238D01*
X128706619Y-70762857D01*
X128849476Y-70858095D01*
X129039952Y-70905714D01*
X129420904Y-70905714D01*
X129516142Y-70858095D01*
X129563761Y-70810476D01*
X129611380Y-70715238D01*
X129611380Y-70524761D01*
X129563761Y-70429523D01*
X129516142Y-70381904D01*
X129420904Y-70334285D01*
X129182809Y-70334285D01*
X129087571Y-70381904D01*
X129039952Y-70429523D01*
X128992333Y-70524761D01*
X128992333Y-70715238D01*
X129039952Y-70810476D01*
X129087571Y-70858095D01*
X129182809Y-70905714D01*
X129516142Y-66079666D02*
X129563761Y-66127285D01*
X129611380Y-66270142D01*
X129611380Y-66365380D01*
X129563761Y-66508238D01*
X129468523Y-66603476D01*
X129373285Y-66651095D01*
X129182809Y-66698714D01*
X129039952Y-66698714D01*
X128849476Y-66651095D01*
X128754238Y-66603476D01*
X128659000Y-66508238D01*
X128611380Y-66365380D01*
X128611380Y-66270142D01*
X128659000Y-66127285D01*
X128706619Y-66079666D01*
X128611380Y-65174904D02*
X128611380Y-65651095D01*
X129087571Y-65698714D01*
X129039952Y-65651095D01*
X128992333Y-65555857D01*
X128992333Y-65317761D01*
X129039952Y-65222523D01*
X129087571Y-65174904D01*
X129182809Y-65127285D01*
X129420904Y-65127285D01*
X129516142Y-65174904D01*
X129563761Y-65222523D01*
X129611380Y-65317761D01*
X129611380Y-65555857D01*
X129563761Y-65651095D01*
X129516142Y-65698714D01*
X144613333Y-51792142D02*
X144565714Y-51839761D01*
X144422857Y-51887380D01*
X144327619Y-51887380D01*
X144184761Y-51839761D01*
X144089523Y-51744523D01*
X144041904Y-51649285D01*
X143994285Y-51458809D01*
X143994285Y-51315952D01*
X144041904Y-51125476D01*
X144089523Y-51030238D01*
X144184761Y-50935000D01*
X144327619Y-50887380D01*
X144422857Y-50887380D01*
X144565714Y-50935000D01*
X144613333Y-50982619D01*
X145470476Y-51220714D02*
X145470476Y-51887380D01*
X145232380Y-50839761D02*
X144994285Y-51554047D01*
X145613333Y-51554047D01*
X139406333Y-51792142D02*
X139358714Y-51839761D01*
X139215857Y-51887380D01*
X139120619Y-51887380D01*
X138977761Y-51839761D01*
X138882523Y-51744523D01*
X138834904Y-51649285D01*
X138787285Y-51458809D01*
X138787285Y-51315952D01*
X138834904Y-51125476D01*
X138882523Y-51030238D01*
X138977761Y-50935000D01*
X139120619Y-50887380D01*
X139215857Y-50887380D01*
X139358714Y-50935000D01*
X139406333Y-50982619D01*
X139739666Y-50887380D02*
X140358714Y-50887380D01*
X140025380Y-51268333D01*
X140168238Y-51268333D01*
X140263476Y-51315952D01*
X140311095Y-51363571D01*
X140358714Y-51458809D01*
X140358714Y-51696904D01*
X140311095Y-51792142D01*
X140263476Y-51839761D01*
X140168238Y-51887380D01*
X139882523Y-51887380D01*
X139787285Y-51839761D01*
X139739666Y-51792142D01*
X134723142Y-59856666D02*
X134770761Y-59904285D01*
X134818380Y-60047142D01*
X134818380Y-60142380D01*
X134770761Y-60285238D01*
X134675523Y-60380476D01*
X134580285Y-60428095D01*
X134389809Y-60475714D01*
X134246952Y-60475714D01*
X134056476Y-60428095D01*
X133961238Y-60380476D01*
X133866000Y-60285238D01*
X133818380Y-60142380D01*
X133818380Y-60047142D01*
X133866000Y-59904285D01*
X133913619Y-59856666D01*
X133913619Y-59475714D02*
X133866000Y-59428095D01*
X133818380Y-59332857D01*
X133818380Y-59094761D01*
X133866000Y-58999523D01*
X133913619Y-58951904D01*
X134008857Y-58904285D01*
X134104095Y-58904285D01*
X134246952Y-58951904D01*
X134818380Y-59523333D01*
X134818380Y-58904285D01*
X135723333Y-51792142D02*
X135675714Y-51839761D01*
X135532857Y-51887380D01*
X135437619Y-51887380D01*
X135294761Y-51839761D01*
X135199523Y-51744523D01*
X135151904Y-51649285D01*
X135104285Y-51458809D01*
X135104285Y-51315952D01*
X135151904Y-51125476D01*
X135199523Y-51030238D01*
X135294761Y-50935000D01*
X135437619Y-50887380D01*
X135532857Y-50887380D01*
X135675714Y-50935000D01*
X135723333Y-50982619D01*
X136675714Y-51887380D02*
X136104285Y-51887380D01*
X136390000Y-51887380D02*
X136390000Y-50887380D01*
X136294761Y-51030238D01*
X136199523Y-51125476D01*
X136104285Y-51173095D01*
X147613619Y-56983476D02*
X146613619Y-57316809D01*
X147613619Y-57650142D01*
X146613619Y-58554904D02*
X147089809Y-58221571D01*
X146613619Y-57983476D02*
X147613619Y-57983476D01*
X147613619Y-58364428D01*
X147566000Y-58459666D01*
X147518380Y-58507285D01*
X147423142Y-58554904D01*
X147280285Y-58554904D01*
X147185047Y-58507285D01*
X147137428Y-58459666D01*
X147089809Y-58364428D01*
X147089809Y-57983476D01*
X146613619Y-59507285D02*
X146613619Y-58935857D01*
X146613619Y-59221571D02*
X147613619Y-59221571D01*
X147470761Y-59126333D01*
X147375523Y-59031095D01*
X147327904Y-58935857D01*
X132691190Y-80613190D02*
X133167380Y-80613190D01*
X132167380Y-80946523D02*
X132691190Y-80613190D01*
X132167380Y-80279857D01*
X133167380Y-79422714D02*
X133167380Y-79994142D01*
X133167380Y-79708428D02*
X132167380Y-79708428D01*
X132310238Y-79803666D01*
X132405476Y-79898904D01*
X132453095Y-79994142D01*
X133858095Y-92289380D02*
X133858095Y-93098904D01*
X133905714Y-93194142D01*
X133953333Y-93241761D01*
X134048571Y-93289380D01*
X134239047Y-93289380D01*
X134334285Y-93241761D01*
X134381904Y-93194142D01*
X134429523Y-93098904D01*
X134429523Y-92289380D01*
X134810476Y-92289380D02*
X135429523Y-92289380D01*
X135096190Y-92670333D01*
X135239047Y-92670333D01*
X135334285Y-92717952D01*
X135381904Y-92765571D01*
X135429523Y-92860809D01*
X135429523Y-93098904D01*
X135381904Y-93194142D01*
X135334285Y-93241761D01*
X135239047Y-93289380D01*
X134953333Y-93289380D01*
X134858095Y-93241761D01*
X134810476Y-93194142D01*
X139192095Y-69556380D02*
X139192095Y-70365904D01*
X139239714Y-70461142D01*
X139287333Y-70508761D01*
X139382571Y-70556380D01*
X139573047Y-70556380D01*
X139668285Y-70508761D01*
X139715904Y-70461142D01*
X139763523Y-70365904D01*
X139763523Y-69556380D01*
X140192095Y-69651619D02*
X140239714Y-69604000D01*
X140334952Y-69556380D01*
X140573047Y-69556380D01*
X140668285Y-69604000D01*
X140715904Y-69651619D01*
X140763523Y-69746857D01*
X140763523Y-69842095D01*
X140715904Y-69984952D01*
X140144476Y-70556380D01*
X140763523Y-70556380D01*
X144018095Y-88225380D02*
X144018095Y-89034904D01*
X144065714Y-89130142D01*
X144113333Y-89177761D01*
X144208571Y-89225380D01*
X144399047Y-89225380D01*
X144494285Y-89177761D01*
X144541904Y-89130142D01*
X144589523Y-89034904D01*
X144589523Y-88225380D01*
X145589523Y-89225380D02*
X145018095Y-89225380D01*
X145303809Y-89225380D02*
X145303809Y-88225380D01*
X145208571Y-88368238D01*
X145113333Y-88463476D01*
X145018095Y-88511095D01*
%LPC*%
D10*
X151130000Y-108712000D02*
X128270000Y-108712000D01*
X151130000Y-41910000D02*
X151130000Y-108712000D01*
X128270000Y-41910000D02*
X151130000Y-41910000D01*
X128270000Y-108712000D02*
X128270000Y-41910000D01*
D12*
X144150000Y-48855000D03*
X144150000Y-43355000D03*
X135250000Y-48855000D03*
X135250000Y-43355000D03*
D13*
X138100000Y-48955000D03*
X138900000Y-48955000D03*
X139700000Y-48955000D03*
X140500000Y-48955000D03*
X141300000Y-48955000D03*
D14*
X140970000Y-98125000D03*
X140970000Y-99995000D03*
X130810000Y-98125000D03*
X130810000Y-99995000D03*
X142240000Y-94315000D03*
X142240000Y-96185000D03*
X144780000Y-94315000D03*
X144780000Y-96185000D03*
X138430000Y-95250000D03*
X138430000Y-93380000D03*
X138430000Y-91105000D03*
X138430000Y-89235000D03*
X130810000Y-93380000D03*
X130810000Y-95250000D03*
X130810000Y-91105000D03*
X130810000Y-89235000D03*
D15*
X145115000Y-80010000D03*
X146985000Y-80010000D03*
X146985000Y-82550000D03*
X145115000Y-82550000D03*
X131745000Y-74930000D03*
X129875000Y-74930000D03*
D14*
X142240000Y-79675000D03*
X142240000Y-77805000D03*
D16*
X146050000Y-99060000D03*
D17*
X143510000Y-99060000D03*
D16*
X135890000Y-99060000D03*
D17*
X133350000Y-99060000D03*
D18*
X147320000Y-94375000D03*
X147320000Y-96125000D03*
D19*
X135495000Y-87630000D03*
X133745000Y-87630000D03*
X133745000Y-83820000D03*
X135495000Y-83820000D03*
X131840000Y-62865000D03*
X133590000Y-62865000D03*
D18*
X147320000Y-73773000D03*
X147320000Y-72023000D03*
D19*
X139305000Y-83820000D03*
X137555000Y-83820000D03*
D18*
X146050000Y-63486000D03*
X146050000Y-61736000D03*
X133985000Y-77075000D03*
X133985000Y-75325000D03*
X142240000Y-83425000D03*
X142240000Y-81675000D03*
D15*
X133015000Y-57150000D03*
X131145000Y-57150000D03*
X133015000Y-59690000D03*
X131145000Y-59690000D03*
X133015000Y-54610000D03*
X131145000Y-54610000D03*
D20*
X130810000Y-69770000D03*
X130810000Y-72470000D03*
D21*
X130810000Y-66990000D03*
X130810000Y-65090000D03*
D22*
X143430000Y-53340000D03*
X146130000Y-53340000D03*
D19*
X138825000Y-53340000D03*
X140575000Y-53340000D03*
D18*
X135890000Y-58815000D03*
X135890000Y-60565000D03*
D20*
X135890000Y-55960000D03*
X135890000Y-53260000D03*
D23*
X145140000Y-58420000D03*
D24*
X139340000Y-60720000D03*
X139340000Y-58420000D03*
X139340000Y-56120000D03*
D25*
X138920000Y-80010000D03*
X134620000Y-80010000D03*
D26*
X136525000Y-95360000D03*
X135255000Y-95360000D03*
X133985000Y-95360000D03*
X132715000Y-95360000D03*
X132715000Y-90060000D03*
X133985000Y-90060000D03*
X135255000Y-90060000D03*
X136525000Y-90060000D03*
D27*
X134086600Y-73609200D03*
X134086600Y-73101200D03*
X134086600Y-72593200D03*
X134086600Y-72110600D03*
X134086600Y-71602600D03*
X134086600Y-71094600D03*
X134086600Y-70612000D03*
X134086600Y-70104000D03*
X134086600Y-69596000D03*
X134086600Y-69088000D03*
X134086600Y-68605400D03*
X134086600Y-68097400D03*
X134086600Y-67589400D03*
X134086600Y-67106800D03*
X134086600Y-66598800D03*
X134086600Y-66090800D03*
D28*
X135940800Y-64236600D03*
X136448800Y-64236600D03*
X136956800Y-64236600D03*
X137439400Y-64236600D03*
X137947400Y-64236600D03*
X138455400Y-64236600D03*
X138938000Y-64236600D03*
X139446000Y-64236600D03*
X139954000Y-64236600D03*
X140462000Y-64236600D03*
X140944600Y-64236600D03*
X141452600Y-64236600D03*
X141960600Y-64236600D03*
X142443200Y-64236600D03*
X142951200Y-64236600D03*
X143459200Y-64236600D03*
D27*
X145313400Y-66090800D03*
X145313400Y-66598800D03*
X145313400Y-67106800D03*
X145313400Y-67589400D03*
X145313400Y-68097400D03*
X145313400Y-68605400D03*
X145313400Y-69088000D03*
X145313400Y-69596000D03*
X145313400Y-70104000D03*
X145313400Y-70612000D03*
X145313400Y-71094600D03*
X145313400Y-71602600D03*
X145313400Y-72110600D03*
X145313400Y-72593200D03*
X145313400Y-73101200D03*
X145313400Y-73609200D03*
D28*
X143459200Y-75463400D03*
X142951200Y-75463400D03*
X142443200Y-75463400D03*
X141960600Y-75463400D03*
X141452600Y-75463400D03*
X140944600Y-75463400D03*
X140462000Y-75463400D03*
X139954000Y-75463400D03*
X139446000Y-75463400D03*
X138938000Y-75463400D03*
X138455400Y-75463400D03*
X137947400Y-75463400D03*
X137439400Y-75463400D03*
X136956800Y-75463400D03*
X136448800Y-75463400D03*
X135940800Y-75463400D03*
D29*
X148590000Y-91490800D03*
X147320000Y-91490800D03*
X146050000Y-91490800D03*
X144780000Y-91490800D03*
X143510000Y-91490800D03*
X142240000Y-91490800D03*
X140970000Y-91490800D03*
X140970000Y-86309200D03*
X142240000Y-86309200D03*
X143510000Y-86309200D03*
X144780000Y-86309200D03*
X146050000Y-86309200D03*
X147320000Y-86309200D03*
X148590000Y-86309200D03*
D30*
X147875000Y-104775000D03*
D31*
X142875000Y-104775000D03*
D30*
X137080000Y-104775000D03*
D31*
X132080000Y-104775000D03*
D16*
X130810000Y-77470000D03*
X130810000Y-80010000D03*
X130810000Y-82550000D03*
D17*
X130810000Y-85090000D03*
M02*
